<?xml version="1.0" standalone="no"?>
<!DOCTYPE svg PUBLIC "-//W3C//DTD SVG 1.1//EN" "http://www.w3.org/Graphics/SVG/1.1/DTD/svg11.dtd" >
<svg>
<metadata>
Created by FontForge 20120731 at Sat Jun 29 13:32:51 2019
 By www
Copyright 1990 as an unpublished work by Bitstream Inc.  All rights reserved.  Confidential.
</metadata>
<defs>
<font id="ErasITCbyBT-Medium" horiz-adv-x="500" >
  <font-face 
    font-family="ITC Eras"
    font-weight="500"
    font-style="italic"
    font-stretch="normal"
    units-per-em="1000"
    panose-1="0 0 0 0 0 0 0 0 0 0"
    ascent="800"
    descent="-200"
    x-height="498"
    cap-height="662"
    bbox="-167 -236 1148 936"
    underline-thickness="58"
    underline-position="-76"
    slope="3"
    stemh="67"
    stemv="80"
    unicode-range="U+0020-FB02"
  />
<missing-glyph horiz-adv-x="275" 
 />
    <glyph glyph-name=".notdef" horiz-adv-x="275" 
 />
    <glyph glyph-name="space" unicode=" " horiz-adv-x="275" 
 />
    <glyph glyph-name="exclam" unicode="!" horiz-adv-x="275" 
d="M75 0l6 94h89l-2 -94h-93zM96 137l17 412v7c0 9 1 45 2 106h96c-2 -23 -5 -68 -11 -136l-33 -389h-71z" />
    <glyph glyph-name="quotedbl" unicode="&#x22;" horiz-adv-x="288" 
d="M103 700v-270h-57v270h57zM242 700v-270h-58v270h58z" />
    <glyph glyph-name="numbersign" unicode="#" horiz-adv-x="769" 
d="M450 711l-81 -230h127l82 230h70l-80 -230h150l-21 -60h-152l-46 -133h161l-21 -60h-162l-81 -229h-71l82 229h-129l-82 -229h-70l81 229h-156l21 60h156l47 133h-167l21 60h168l82 230h71zM475 421h-129l-46 -133h128z" />
    <glyph glyph-name="dollar" unicode="$" horiz-adv-x="551" 
d="M101 79l-4 87c57 -30 106 -47 153 -47c66 0 102 29 102 74c0 33 -20 51 -47 75l-105 93c-46 41 -75 77 -75 133c0 63 43 110 119 122l1 52l78 -1l-2 -52c27 -3 53 -8 80 -16l5 -79c-51 21 -95 29 -124 29c-47 0 -73 -25 -73 -58c0 -28 15 -49 47 -76l94 -81
c49 -42 78 -71 78 -134c0 -84 -52 -139 -141 -148l-1 -54l-76 1l2 53c-32 3 -68 12 -111 27z" />
    <glyph glyph-name="percent" unicode="%" horiz-adv-x="810" 
d="M23 462c0 138 63 215 168 215c100 0 156 -62 156 -175c0 -140 -59 -211 -172 -211c-96 0 -152 59 -152 171zM192 619c-66 0 -97 -56 -97 -172c0 -62 31 -99 85 -99c65 0 94 51 94 152c0 81 -19 119 -82 119zM445 164c0 138 65 215 169 215c100 0 155 -62 155 -175
c0 -140 -58 -211 -171 -211c-96 0 -153 59 -153 171zM615 321c-66 0 -97 -57 -97 -173c0 -62 31 -98 85 -98c65 0 94 50 94 151c0 81 -19 120 -82 120zM589 662l-331 -662h-61l331 662h61z" />
    <glyph glyph-name="ampersand" unicode="&#x26;" horiz-adv-x="633" 
d="M492 0l-25 31c-57 -31 -117 -44 -184 -44c-161 0 -252 90 -252 215c0 94 49 155 151 196c-26 42 -43 75 -43 119c0 100 69 159 199 159c46 0 93 -8 141 -23l5 -82c-51 22 -97 37 -147 37c-70 0 -114 -39 -114 -93c0 -32 16 -61 43 -98l217 -290c34 29 47 67 47 121v6h81
c-1 -80 -23 -134 -79 -181l56 -73h-96zM416 80l-194 257c-66 -24 -103 -73 -103 -131c0 -94 69 -155 176 -155c46 0 85 9 121 29z" />
    <glyph glyph-name="quoteright" unicode="&#x2019;" horiz-adv-x="275" 
d="M139 676h106l-97 -167h-63z" />
    <glyph glyph-name="parenleft" unicode="(" horiz-adv-x="264" 
d="M122 -188c-31 137 -50 262 -50 381c0 158 32 327 95 507h68c-47 -156 -80 -309 -80 -489c0 -130 13 -262 38 -399h-71z" />
    <glyph glyph-name="parenright" unicode=")" horiz-adv-x="264" 
d="M136 700c31 -137 50 -262 50 -381c0 -158 -32 -327 -95 -507h-68c47 156 81 309 81 489c0 130 -13 262 -38 399h70z" />
    <glyph glyph-name="asterisk" unicode="*" 
d="M265 433l-90 -145l-59 43l113 130l-166 42l22 67l157 -65l-13 172h69l-10 -172l157 66l22 -68l-164 -42l111 -130l-59 -43z" />
    <glyph glyph-name="plus" unicode="+" horiz-adv-x="833" 
d="M446 596v-269h263v-57h-263v-270h-58v270h-264v57h264v269h58z" />
    <glyph glyph-name="comma" unicode="," horiz-adv-x="275" 
d="M102 97h112l-113 -198h-72z" />
    <glyph glyph-name="hyphen" unicode="-" horiz-adv-x="329" 
d="M43 214v81h243v-81h-243z" />
    <glyph glyph-name="period" unicode="." horiz-adv-x="275" 
d="M88 97h93l-6 -97h-92z" />
    <glyph glyph-name="slash" unicode="/" horiz-adv-x="276" 
d="M16 -93h-64l286 755h64z" />
    <glyph glyph-name="zero" unicode="0" horiz-adv-x="551" 
d="M253 55c108 0 170 117 170 344c0 129 -53 207 -141 207c-107 0 -170 -118 -170 -337c0 -137 51 -214 141 -214zM505 375c0 -248 -98 -390 -253 -390c-146 0 -222 103 -222 306c0 242 98 385 256 385c141 0 219 -103 219 -301z" />
    <glyph glyph-name="one" unicode="1" horiz-adv-x="551" 
d="M314 0h-94c6 48 9 89 11 123l18 332c1 28 2 56 2 85v33c-20 -10 -45 -23 -75 -42l-1 80c36 17 67 34 95 51h79c-8 -56 -10 -111 -13 -162l-16 -293c-3 -48 -5 -117 -6 -207z" />
    <glyph glyph-name="two" unicode="2" horiz-adv-x="551" 
d="M28 0l4 68l159 144c145 131 217 233 217 304c0 62 -46 94 -137 94c-63 0 -131 -11 -207 -34l12 79c70 13 135 21 198 21c150 0 223 -49 223 -151c0 -85 -69 -198 -205 -320l-151 -135h187c46 0 99 3 158 9l-7 -79h-451z" />
    <glyph glyph-name="three" unicode="3" horiz-adv-x="551" 
d="M34 13l-8 81c63 -21 122 -38 190 -38c123 0 188 48 188 136c0 78 -56 119 -166 119c-21 0 -49 -2 -85 -5v74c22 -1 40 -2 55 -2c119 0 181 49 181 128c0 74 -46 103 -146 103c-55 0 -114 -10 -171 -30l17 79c63 12 118 18 167 18c147 0 222 -54 222 -160
c0 -86 -47 -143 -139 -168c100 -16 150 -69 150 -160c0 -126 -102 -202 -274 -202c-62 0 -121 9 -181 27z" />
    <glyph glyph-name="four" unicode="4" horiz-adv-x="551" 
d="M302 0c7 57 11 98 12 124l5 108h-289l7 87l203 274c11 15 27 39 47 69h125c-8 -80 -13 -144 -14 -192l-5 -165h38c17 0 43 1 77 6v-82c-30 3 -50 3 -59 3h-60l-6 -113c-1 -23 -1 -44 -1 -63c0 -11 0 -30 1 -56h-81zM112 305h213l11 300z" />
    <glyph glyph-name="five" unicode="5" horiz-adv-x="551" 
d="M58 3l-5 80c52 -18 103 -28 155 -28c130 0 198 56 198 153c0 84 -57 129 -168 129c-50 0 -103 -9 -162 -24l35 349h382v-73c-57 4 -98 5 -122 5h-188l-21 -200c34 5 67 8 98 8c151 0 234 -70 234 -190c0 -146 -98 -226 -284 -226c-49 0 -99 3 -152 17z" />
    <glyph glyph-name="six" unicode="6" horiz-adv-x="551" 
d="M350 662c-155 -201 -240 -346 -240 -463c0 -94 56 -145 159 -145c96 0 153 54 153 140c0 93 -48 144 -131 144c-30 0 -63 -7 -99 -21l42 74c24 8 48 13 73 13c125 0 199 -79 199 -207c0 -129 -87 -211 -237 -211c-157 0 -240 74 -240 212c0 123 75 275 222 464h99z" />
    <glyph glyph-name="seven" unicode="7" horiz-adv-x="551" 
d="M122 0l216 434c20 41 46 94 81 156h-240h-22c-22 0 -51 0 -87 -4l10 80c36 -4 63 -4 83 -4h21h315v-72l-169 -359c-22 -47 -58 -123 -101 -231h-107z" />
    <glyph glyph-name="eight" unicode="8" horiz-adv-x="551" 
d="M130 489c0 -76 50 -118 139 -118c96 0 150 47 150 123c0 80 -47 117 -144 117c-96 0 -145 -41 -145 -122zM98 175c0 -84 50 -124 152 -124c114 0 169 40 169 129c0 84 -49 123 -154 123c-109 0 -167 -48 -167 -128zM169 341c-84 30 -116 73 -116 154
c0 117 78 181 222 181c148 0 220 -51 220 -168c0 -88 -44 -146 -125 -167c85 -13 127 -66 127 -159c0 -123 -86 -196 -242 -196c-155 0 -233 61 -233 176c0 103 48 162 147 179z" />
    <glyph glyph-name="nine" unicode="9" horiz-adv-x="551" 
d="M192 0c155 196 236 343 236 466c0 97 -48 142 -156 142c-95 0 -150 -49 -150 -133c0 -75 51 -118 142 -118c34 0 69 5 106 14l-27 -75c-29 -7 -57 -10 -87 -10c-141 0 -217 64 -217 184c0 124 87 205 234 205c155 0 237 -72 237 -201c0 -134 -75 -283 -218 -474h-100z
" />
    <glyph glyph-name="colon" unicode=":" horiz-adv-x="299" 
d="M105 97h92l-5 -97h-92zM118 498h92l-5 -98h-93z" />
    <glyph glyph-name="semicolon" unicode=";" horiz-adv-x="299" 
d="M114 498h92l-5 -98h-92zM114 97h112l-113 -198h-72z" />
    <glyph glyph-name="less" unicode="&#x3c;" horiz-adv-x="833" 
d="M704 497l-488 -199l488 -198v-63l-575 236v50l575 236v-62z" />
    <glyph glyph-name="equal" unicode="=" horiz-adv-x="833" 
d="M709 420v-57h-585v57h585zM709 233v-57h-585v57h585z" />
    <glyph glyph-name="greater" unicode="&#x3e;" horiz-adv-x="833" 
d="M704 323v-50l-575 -236v63l488 198l-488 199v62z" />
    <glyph glyph-name="question" unicode="?" horiz-adv-x="498" 
d="M187 0l6 94h90l-3 -94h-93zM202 139l3 113c1 28 5 44 26 65l96 96c38 38 59 82 59 121c0 58 -49 91 -144 91c-66 0 -121 -16 -178 -33l11 69c54 15 111 22 173 22c148 0 221 -51 221 -154c0 -61 -29 -117 -88 -176l-76 -76c-13 -13 -19 -30 -20 -55l-4 -83h-79z" />
    <glyph glyph-name="at" unicode="@" horiz-adv-x="1000" 
d="M587 231l29 118c-11 59 -49 93 -101 93c-96 0 -167 -98 -167 -224c0 -72 35 -112 96 -112c65 0 124 49 143 125zM631 412l28 59h54l-69 -277c-4 -16 -6 -29 -6 -39c0 -29 18 -44 54 -44c26 0 65 14 99 43c56 48 93 130 93 220c0 170 -135 288 -349 288
c-109 0 -204 -34 -279 -100c-92 -80 -138 -186 -138 -311c0 -112 38 -196 121 -261c64 -51 157 -82 261 -82c111 0 220 32 308 92l22 -32c-96 -72 -205 -108 -322 -108c-124 0 -227 30 -305 90c-99 76 -148 176 -148 305c0 107 34 203 98 282c94 114 228 175 392 175
c110 0 208 -31 273 -82c84 -65 128 -152 128 -250c0 -112 -43 -204 -120 -266c-45 -36 -98 -55 -152 -55c-64 0 -97 25 -97 76c0 3 1 7 1 11c-33 -57 -84 -87 -145 -87c-100 0 -153 57 -153 162c0 153 104 268 229 268c59 0 100 -26 122 -77z" />
    <glyph glyph-name="A" unicode="A" horiz-adv-x="606" 
d="M627 0h-95c-5 27 -11 53 -20 78l-75 218h-255l-91 -196c-7 -16 -20 -49 -37 -100h-94l275 582c6 13 17 39 31 80h131c4 -30 12 -53 19 -71zM325 606l-113 -240h200z" />
    <glyph glyph-name="B" unicode="B" horiz-adv-x="558" 
d="M372 343c98 -10 147 -63 147 -156c0 -130 -82 -187 -242 -187h-233c19 152 33 374 35 662h235c134 0 204 -35 204 -149c0 -91 -52 -154 -146 -170zM153 373h90c125 0 192 47 192 127c0 72 -43 93 -131 93h-135c-5 -54 -7 -89 -8 -104zM144 67h125c113 0 170 44 170 126
c0 76 -47 114 -142 114h-146l-6 -83c-1 -20 -2 -51 -2 -95c0 -7 0 -28 1 -62z" />
    <glyph glyph-name="C" unicode="C" horiz-adv-x="611" 
d="M582 569c-61 24 -126 36 -194 36c-160 0 -254 -104 -254 -285c0 -174 90 -265 259 -265c59 0 115 11 176 29l-13 -84c-50 -7 -104 -15 -166 -15c-230 0 -348 117 -348 332c0 226 132 359 362 359c57 0 116 -7 175 -21z" />
    <glyph glyph-name="D" unicode="D" horiz-adv-x="708" 
d="M46 0c16 142 30 363 34 662h274c88 0 155 0 216 -51c64 -54 97 -138 97 -255c0 -120 -36 -215 -105 -278c-69 -64 -151 -78 -265 -78h-251zM146 69h103h24c73 0 133 2 188 35c77 47 115 130 115 252c0 153 -66 237 -184 237h-53h-170l-17 -354c-3 -62 -4 -118 -6 -170z
" />
    <glyph glyph-name="E" unicode="E" horiz-adv-x="542" 
d="M45 0c17 158 29 379 33 662h447l-6 -78c-63 3 -102 5 -118 5h-233c-2 -12 -4 -20 -4 -24c0 -5 -1 -18 -2 -40l-5 -144h208c39 0 76 2 110 4l-3 -77c-34 3 -64 3 -89 3h-51h-176l-8 -96c-3 -34 -5 -79 -7 -136c57 -5 108 -6 155 -6c71 0 137 2 198 8l-4 -81h-445z" />
    <glyph glyph-name="F" unicode="F" horiz-adv-x="502" 
d="M46 0c17 113 29 334 34 662h417l-5 -79c-57 6 -107 8 -151 8h-171c-4 -30 -6 -57 -7 -80l-5 -130h170c10 0 52 1 127 5l-4 -81c-40 2 -79 3 -119 3h-175l-5 -93c-2 -48 -3 -100 -3 -157v-58h-103z" />
    <glyph glyph-name="G" unicode="G" horiz-adv-x="707" 
d="M562 84c8 53 10 128 11 222h-147l4 72h233c-10 -118 -13 -213 -13 -282c0 -24 1 -48 2 -72c-93 -26 -181 -39 -263 -39c-226 0 -350 119 -350 323c0 230 135 370 371 370c69 0 141 -10 217 -30l7 -77c-81 20 -152 37 -223 37c-180 0 -283 -114 -283 -297
c0 -160 99 -257 269 -257c70 0 126 11 165 30z" />
    <glyph glyph-name="H" unicode="H" horiz-adv-x="718" 
d="M146 0h-100c16 142 30 363 34 662h100c-6 -50 -9 -96 -11 -137l-9 -147c77 -1 144 -1 200 -1c36 0 103 0 203 1l7 115c3 48 3 86 3 112v57h99c-24 -250 -33 -457 -33 -617v-45h-99c7 74 10 120 11 139l8 166c-81 2 -148 3 -201 3c-51 0 -118 -1 -201 -3l-5 -90
c-3 -67 -5 -139 -6 -215z" />
    <glyph glyph-name="I" unicode="I" horiz-adv-x="237" 
d="M185 662c-5 -45 -10 -91 -12 -137l-16 -310c-3 -57 -6 -129 -7 -215h-100c16 143 30 364 34 662h101z" />
    <glyph glyph-name="J" unicode="J" horiz-adv-x="414" 
d="M-9 84c51 -17 93 -28 131 -28c90 0 118 42 127 131c4 46 15 205 18 475h102c-6 -52 -9 -98 -11 -137l-13 -243c-5 -92 0 -164 -26 -212c-29 -55 -98 -84 -197 -84c-42 0 -84 5 -128 17z" />
    <glyph glyph-name="K" unicode="K" horiz-adv-x="521" 
d="M145 0h-100c16 142 30 363 34 662h100c-6 -48 -10 -94 -12 -137l-16 -310c-3 -63 -5 -135 -6 -215zM166 347l133 164c50 62 88 110 110 151h123l-268 -313l263 -349h-124c-23 42 -42 73 -56 93z" />
    <glyph glyph-name="L" unicode="L" horiz-adv-x="444" 
d="M45 0c17 158 29 379 33 662h98c-7 -57 -13 -114 -15 -171l-11 -253c-1 -30 -1 -83 -1 -160c37 -3 73 -5 109 -5c65 0 128 3 187 8l-4 -81h-396z" />
    <glyph glyph-name="M" unicode="M" horiz-adv-x="867" 
d="M352 0c-4 29 -10 53 -16 71l-169 516l-34 -402c-3 -32 -7 -94 -10 -185h-89c21 141 43 362 57 662h144c8 -38 15 -64 19 -78l167 -518l208 496c14 33 26 66 37 100h143c-4 -66 -5 -112 -6 -137l-13 -378c0 -9 -1 -17 -1 -25c0 -41 1 -82 3 -122h-97c6 66 9 107 10 122
l13 308c1 26 2 55 2 87c0 23 -1 47 -1 72l-211 -509c-8 -19 -17 -45 -27 -80h-129z" />
    <glyph glyph-name="N" unicode="N" horiz-adv-x="715" 
d="M144 215c-7 -143 -7 -215 -7 -215h-93c23 209 36 430 40 662h124l348 -577l22 408c2 42 4 80 4 112c0 5 -1 24 -1 57h92c-6 -48 -11 -94 -13 -138l-20 -377c-1 -20 -1 -46 -1 -79c0 -9 0 -32 1 -68h-128c-20 39 -37 65 -46 80l-305 506z" />
    <glyph glyph-name="O" unicode="O" horiz-adv-x="801" 
d="M384 -14c-214 0 -343 123 -343 329c0 227 135 361 370 361c221 0 348 -125 348 -334c0 -223 -135 -356 -375 -356zM133 315c0 -167 97 -259 267 -259c171 0 267 101 267 289c0 169 -95 261 -267 261c-173 0 -267 -101 -267 -291z" />
    <glyph glyph-name="P" unicode="P" 
d="M45 0c16 142 30 363 34 662h201h28c49 0 88 -1 120 -20c42 -24 68 -73 68 -134c0 -121 -88 -202 -243 -202c-19 0 -38 1 -59 3l-23 64c18 -3 35 -3 50 -3c125 0 187 44 187 124c0 85 -47 101 -137 101c-31 0 -67 -2 -105 -6c-6 -50 -6 -84 -7 -102l-11 -271
c-3 -72 -5 -144 -6 -216h-97z" />
    <glyph glyph-name="Q" unicode="Q" horiz-adv-x="801" 
d="M133 322c0 -174 96 -268 266 -268c171 0 267 102 267 291c0 170 -94 261 -266 261c-170 0 -267 -102 -267 -284zM756 95l-10 -80c-99 -19 -209 -30 -320 -30c-257 0 -385 110 -385 332c0 223 133 359 359 359c233 0 359 -118 359 -332c0 -146 -53 -241 -155 -281v-6
c43 5 95 17 152 38z" />
    <glyph glyph-name="R" unicode="R" horiz-adv-x="530" 
d="M45 0c16 140 30 361 34 662h233c126 0 196 -31 196 -157c0 -111 -71 -184 -199 -196l182 -309h-106c-27 56 -51 97 -69 127l-144 242c25 -1 40 -2 46 -2c133 0 199 44 199 131c0 88 -54 95 -146 95h-106c-3 -32 -5 -67 -7 -106l-11 -272c-3 -85 -5 -157 -6 -215h-96z" />
    <glyph glyph-name="S" unicode="S" horiz-adv-x="447" 
d="M26 26l-5 87c66 -35 121 -60 186 -60c74 0 118 34 118 87c0 34 -21 66 -66 105l-117 101c-60 52 -100 92 -100 163c0 99 73 165 200 165c53 0 106 -10 150 -28l8 -78c-61 22 -113 36 -160 36c-71 0 -112 -39 -112 -87c0 -34 21 -61 59 -94l130 -113
c64 -55 95 -100 95 -159c0 -100 -74 -166 -201 -166c-58 0 -121 13 -185 41z" />
    <glyph glyph-name="T" unicode="T" horiz-adv-x="491" 
d="M181 0c11 100 27 299 37 596c-73 -1 -139 -3 -198 -8l3 74h479l-2 -74c-51 6 -115 7 -192 8l-22 -380c-3 -46 -3 -89 -3 -130c0 -19 0 -48 1 -86h-103z" />
    <glyph glyph-name="U" unicode="U" horiz-adv-x="669" 
d="M172 662c-6 -49 -9 -95 -11 -137l-14 -293c-1 -12 -1 -23 -1 -34c0 -45 7 -78 38 -102c32 -25 79 -40 137 -40c151 0 194 72 198 207l6 230c1 44 3 100 3 169h99c-7 -54 -11 -100 -13 -138l-11 -230c-4 -88 3 -166 -45 -225c-42 -52 -127 -83 -241 -83
c-168 0 -261 77 -261 202c0 83 14 241 16 474h100z" />
    <glyph glyph-name="V" unicode="V" horiz-adv-x="611" 
d="M345 0h-128c-4 31 -12 53 -18 71l-205 591h97c5 -28 12 -54 20 -78l178 -516l231 494c7 15 20 48 37 100h92l-275 -582c-7 -15 -17 -42 -29 -80z" />
    <glyph glyph-name="W" unicode="W" horiz-adv-x="887" 
d="M485 385l104 -317l206 494c9 21 21 54 36 100h86l-248 -582c-9 -22 -18 -49 -28 -80h-121c-5 32 -13 55 -18 71l-65 216l-86 -207c-9 -22 -19 -48 -29 -80h-121c-6 30 -15 54 -20 71l-184 591h91c4 -25 11 -51 19 -78l160 -516l137 309l-91 285h89c5 -32 13 -57 19 -78
l31 -113l33 91c3 9 15 42 34 100h87z" />
    <glyph glyph-name="X" unicode="X" horiz-adv-x="535" 
d="M258 289l-148 -202c-17 -23 -38 -50 -57 -87h-104l265 348l-211 314h110c14 -24 23 -38 26 -42l135 -209l126 166c20 26 37 55 54 85h105l-240 -313l232 -349h-112c-19 37 -32 61 -40 73z" />
    <glyph glyph-name="Y" unicode="Y" horiz-adv-x="476" 
d="M192 0c5 64 8 102 8 112l7 186l-214 364h108c11 -26 21 -49 33 -69l123 -214l114 199c11 19 25 47 42 84h97l-216 -369l-9 -208v-15c0 -23 1 -46 2 -70h-95z" />
    <glyph glyph-name="Z" unicode="Z" horiz-adv-x="523" 
d="M16 0v81l398 510h-271c-16 0 -45 -1 -86 -4l3 75h456v-80l-399 -511h258c11 0 48 1 114 5l-3 -76h-470z" />
    <glyph glyph-name="bracketleft" unicode="[" horiz-adv-x="287" 
d="M269 -196h-200c6 54 8 97 10 129l31 585v3c0 12 1 64 2 155h197l-2 -63h-113l-35 -743h110v-66z" />
    <glyph glyph-name="backslash" unicode="\" horiz-adv-x="278" 
d="M93 662l147 -755h-59l-147 755h59z" />
    <glyph glyph-name="bracketright" unicode="]" horiz-adv-x="287" 
d="M11 676h199c-6 -54 -8 -98 -10 -129l-30 -585v-3c0 -12 -2 -64 -3 -155h-196l1 63h114l34 743h-109v66z" />
    <glyph glyph-name="asciicircum" unicode="^" horiz-adv-x="1000" 
d="M539 712l254 -272h-77l-216 214l-216 -214h-78l254 272h79z" />
    <glyph glyph-name="underscore" unicode="_" 
d="M500 -178v-58h-500v58h500z" />
    <glyph glyph-name="quoteleft" unicode="&#x2018;" horiz-adv-x="275" 
d="M180 509h-106l97 167h63z" />
    <glyph glyph-name="a" unicode="a" horiz-adv-x="493" 
d="M295 0c-41 -7 -77 -13 -111 -13c-101 0 -163 52 -163 129c0 72 37 110 116 139l114 41c75 27 107 47 107 89c0 45 -34 65 -105 65c-51 0 -108 -13 -170 -40l11 75c58 18 116 26 174 26c131 0 171 -42 171 -132c0 -13 0 -27 -1 -40l-10 -255v-84h-91c7 43 8 84 10 123
l9 159c-18 -17 -38 -26 -59 -34l-109 -41c-51 -19 -80 -41 -80 -88c0 -44 31 -69 91 -69c20 0 56 4 106 17z" />
    <glyph glyph-name="b" unicode="b" horiz-adv-x="565" 
d="M148 410c-6 -41 -10 -101 -10 -170c0 -122 50 -186 143 -186c101 0 162 77 162 212c0 120 -56 180 -159 180c-42 0 -86 -12 -136 -36zM42 0c22 269 34 490 36 662h84c-4 -44 -5 -76 -6 -95l-3 -86c40 19 89 31 140 31c142 0 232 -87 232 -244c0 -178 -97 -282 -235 -282
c-70 0 -121 26 -160 84l-4 -70h-84z" />
    <glyph glyph-name="c" unicode="c" horiz-adv-x="440" 
d="M406 8c-48 -14 -92 -22 -132 -22c-150 0 -238 91 -238 251c0 171 98 275 257 275c41 0 84 -8 132 -20v-75c-49 15 -91 28 -135 28c-112 0 -173 -73 -173 -210c0 -121 54 -182 159 -182c41 0 89 13 147 32z" />
    <glyph glyph-name="d" unicode="d" horiz-adv-x="565" 
d="M413 0l3 72c-47 -56 -101 -84 -166 -84c-140 0 -216 82 -216 225c0 181 109 298 294 298c37 0 74 -6 109 -16l1 45c1 39 2 60 2 62v60h82c-14 -160 -26 -381 -30 -662h-79zM432 431c-29 10 -65 16 -107 16c-133 0 -208 -82 -208 -228c0 -108 53 -170 139 -170
c106 0 165 68 170 204z" />
    <glyph glyph-name="e" unicode="e" horiz-adv-x="493" 
d="M119 267c-1 -18 -2 -32 -2 -43c0 -115 52 -174 156 -174c58 0 100 17 146 36l-9 -78c-53 -13 -99 -22 -140 -22c-147 0 -234 92 -234 248c0 172 100 278 245 278c126 0 194 -72 194 -203c0 -8 -1 -21 -2 -42h-354zM128 332h262c0 72 -42 112 -118 112
c-75 0 -130 -42 -144 -112z" />
    <glyph glyph-name="f" unicode="f" horiz-adv-x="271" 
d="M285 498l-3 -63h-113c-7 -137 -12 -282 -16 -435h-85c13 146 19 290 19 435h-68l3 63h68v35c0 97 43 142 139 142c27 0 53 -3 77 -9l3 -63c-21 4 -41 7 -61 7c-62 0 -76 -29 -76 -94v-18h113z" />
    <glyph glyph-name="g" unicode="g" horiz-adv-x="565" 
d="M70 -113c80 -32 148 -47 204 -47c96 0 135 47 136 140l2 74c-37 -39 -99 -64 -160 -64c-139 0 -216 80 -216 222c0 188 108 298 305 298c63 0 126 -9 179 -25c-29 -247 -20 -418 -26 -503c-11 -145 -76 -208 -235 -208c-63 0 -125 12 -182 33zM428 429
c-28 10 -64 15 -104 15c-130 0 -206 -83 -206 -238c0 -96 57 -155 140 -155c100 0 160 68 164 202z" />
    <glyph glyph-name="h" unicode="h" horiz-adv-x="567" 
d="M146 427c43 57 107 86 191 86c119 0 179 -53 179 -158c0 -36 -9 -138 -9 -307v-48h-91c14 119 18 223 18 306c0 91 -11 142 -116 142c-87 0 -147 -48 -169 -139c-8 -32 -15 -136 -18 -309h-87c17 210 26 431 28 662h87c-4 -38 -6 -72 -7 -104z" />
    <glyph glyph-name="i" unicode="i" horiz-adv-x="220" 
d="M50 0c14 155 22 311 22 470v28h95c-14 -155 -22 -311 -22 -470v-28h-95zM83 578l2 84h87l-2 -84h-87z" />
    <glyph glyph-name="j" unicode="j" horiz-adv-x="220" 
d="M82 498h93c-27 -342 -28 -537 -32 -582c-9 -100 -55 -141 -182 -141c-40 0 -79 5 -120 15l-1 76c42 -15 80 -22 111 -22c116 0 110 67 118 258l8 185c1 22 3 92 5 211zM86 577l3 85h86l-3 -85h-86z" />
    <glyph glyph-name="k" unicode="k" horiz-adv-x="468" 
d="M39 0c16 112 30 333 34 662h92c-8 -69 -12 -137 -15 -204l-20 -458h-91zM150 273c79 78 150 153 215 225h117l-231 -224l222 -274h-112c-65 94 -135 184 -211 273z" />
    <glyph glyph-name="l" unicode="l" horiz-adv-x="215" 
d="M48 0c16 112 30 334 34 662h91c-16 -112 -30 -334 -34 -662h-91z" />
    <glyph glyph-name="m" unicode="m" horiz-adv-x="832" 
d="M683 0c11 126 15 235 15 322c0 84 -21 125 -95 125c-130 0 -152 -121 -152 -367c0 -25 1 -52 1 -80h-88c11 119 15 224 15 311c0 89 -11 136 -95 136c-146 0 -151 -147 -152 -447h-88c13 159 20 315 20 467v31h74l-2 -64c44 56 94 79 165 79c84 0 134 -32 148 -92
c41 62 97 92 174 92c107 0 158 -56 158 -169c0 -58 -9 -158 -9 -303v-41h-89z" />
    <glyph glyph-name="n" unicode="n" horiz-adv-x="567" 
d="M416 0c15 155 18 262 18 314c0 92 -22 134 -114 134c-166 0 -190 -132 -190 -409v-39h-87c15 158 22 324 22 498h78v-78c47 64 109 92 194 92c123 0 177 -51 177 -158c0 -53 -7 -153 -7 -302v-52h-91z" />
    <glyph glyph-name="o" unicode="o" horiz-adv-x="569" 
d="M37 237c0 170 96 275 257 275c152 0 238 -90 238 -253c0 -173 -100 -273 -248 -273c-160 0 -247 90 -247 251zM290 444c-112 0 -172 -72 -172 -211c0 -120 55 -180 160 -180c112 0 172 72 172 209c0 122 -53 182 -160 182z" />
    <glyph glyph-name="p" unicode="p" horiz-adv-x="565" 
d="M151 427c-6 -35 -12 -96 -12 -180c0 -130 46 -194 147 -194s159 73 159 212c0 123 -58 184 -173 184c-41 0 -82 -7 -121 -22zM28 -211c21 138 33 368 40 690c72 22 140 33 205 33c169 0 254 -84 254 -249c0 -167 -94 -278 -234 -278c-71 0 -120 28 -163 91l-5 -146
c0 -12 -4 -59 -5 -141h-92z" />
    <glyph glyph-name="q" unicode="q" horiz-adv-x="565" 
d="M423 431c-30 10 -64 13 -104 13c-126 0 -205 -86 -205 -225c0 -106 56 -170 142 -170c103 0 163 70 165 206zM402 -211c7 74 11 125 12 154l4 118c-41 -46 -101 -71 -166 -71c-139 0 -217 80 -217 223c0 187 109 297 305 297c76 0 138 -11 173 -25
c-14 -279 -22 -511 -24 -696h-87z" />
    <glyph glyph-name="r" unicode="r" horiz-adv-x="322" 
d="M47 0c13 157 19 311 19 463v35h85l-3 -69c31 59 69 84 128 84c13 0 27 -2 41 -5l5 -74c-26 3 -41 4 -45 4c-143 0 -142 -138 -145 -438h-85z" />
    <glyph glyph-name="s" unicode="s" horiz-adv-x="395" 
d="M18 94c60 -28 112 -44 161 -44c68 0 106 26 106 67c0 32 -19 47 -48 70l-109 86c-50 40 -76 75 -76 121c0 68 60 118 155 118c39 0 82 -7 130 -19l5 -73c-57 20 -102 28 -131 28c-48 0 -78 -24 -78 -57c0 -22 16 -40 50 -66l101 -76c50 -39 82 -65 82 -127
c0 -84 -64 -136 -188 -136c-49 0 -101 9 -156 27z" />
    <glyph glyph-name="t" unicode="t" horiz-adv-x="323" 
d="M86 435h-70l3 63h71l2 83l83 16l-4 -99h147l-2 -63h-148l-13 -292c0 -11 -1 -17 -1 -21c0 -49 20 -65 77 -65c30 0 57 7 84 13l-12 -74c-39 -7 -76 -11 -109 -11c-85 0 -124 36 -124 112c0 15 2 35 3 61z" />
    <glyph glyph-name="u" unicode="u" horiz-adv-x="567" 
d="M152 498c-15 -155 -19 -262 -19 -314c0 -92 23 -134 115 -134c166 0 189 131 189 408v40h88c-15 -158 -23 -324 -23 -498h-78v77c-47 -64 -108 -91 -193 -91c-123 0 -178 50 -178 157c0 54 7 156 7 304v51h92z" />
    <glyph glyph-name="v" unicode="v" horiz-adv-x="479" 
d="M287 0h-118c-20 82 -79 247 -171 498h96c16 -62 28 -104 36 -127l105 -304l116 276c24 57 43 109 58 155h89c-120 -265 -189 -432 -211 -498z" />
    <glyph glyph-name="w" unicode="w" horiz-adv-x="808" 
d="M615 0h-108l-97 421l-148 -421h-103l-104 343c-16 53 -34 104 -52 155h90c10 -45 18 -76 24 -95l101 -334l145 429h100l103 -429l133 324c15 36 27 70 39 105h88c-50 -117 -79 -185 -86 -202z" />
    <glyph glyph-name="x" unicode="x" horiz-adv-x="390" 
d="M316 0c-23 48 -46 83 -63 109l-61 97l-86 -126c-14 -20 -31 -45 -48 -80h-94c66 90 103 142 114 158l75 109l-78 124c-12 19 -37 55 -76 107h98c13 -28 29 -54 45 -79l57 -86l64 91c14 20 31 45 48 74h94c-49 -68 -78 -107 -85 -117l-80 -110l76 -121
c31 -49 66 -98 104 -150h-104z" />
    <glyph glyph-name="y" unicode="y" horiz-adv-x="465" 
d="M214 -99c-42 -90 -85 -127 -175 -127c-31 0 -61 4 -90 10l-5 70c29 -10 56 -15 81 -15c52 0 90 27 114 80l39 88l-131 346c-5 14 -23 62 -56 145h99l114 -333c8 -23 15 -48 20 -76c9 25 20 52 33 81l92 208c11 25 27 65 47 120h93z" />
    <glyph glyph-name="z" unicode="z" horiz-adv-x="427" 
d="M406 0h-398l3 78l319 357h-207c-29 0 -57 -1 -83 -3l3 66h380v-71l-323 -359h190c20 0 59 2 117 6z" />
    <glyph glyph-name="braceleft" unicode="{" 
d="M419 659c-8 0 -15 1 -22 1c-86 0 -101 -30 -101 -119v-118c0 -96 -16 -142 -97 -164c81 -22 97 -68 97 -164v-118c0 -90 16 -118 104 -118h19v-61h-17c-56 0 -97 5 -128 25c-44 29 -49 77 -49 153v119c0 97 -30 134 -119 134c-7 0 -14 -1 -22 -1v62c8 0 15 -1 22 -1
c89 0 119 37 119 135v119c0 76 4 124 49 153c31 20 71 25 128 25h17v-62z" />
    <glyph glyph-name="bar" unicode="|" 
d="M281 764v-1000h-62v1000h62z" />
    <glyph glyph-name="braceright" unicode="}" 
d="M275 543v-119c0 -98 31 -135 120 -135c7 0 14 1 22 1v-62c-8 0 -15 1 -22 1c-89 0 -120 -37 -120 -135v-118c0 -76 -4 -125 -48 -154c-30 -20 -71 -24 -126 -24h-20v61c8 0 15 -1 22 -1c86 0 101 31 101 120v117c0 96 16 142 97 164c-81 22 -97 68 -97 164v118
c0 90 -16 119 -104 119h-19v61h17c56 0 98 -5 129 -25c44 -29 48 -77 48 -153z" />
    <glyph glyph-name="asciitilde" unicode="~" horiz-adv-x="833" 
d="M747 306c-66 -47 -129 -70 -189 -70c-29 0 -60 6 -93 17c-69 23 -128 50 -190 50c-59 0 -117 -28 -188 -78v65c68 47 131 71 189 71c52 0 97 -16 142 -32c48 -17 91 -36 141 -36c60 0 118 28 188 77v-64z" />
    <glyph glyph-name="exclamdown" unicode="&#xa1;" horiz-adv-x="275" 
d="M191 525l-17 -412c0 -1 -1 -2 -1 -7c0 -9 0 -45 -1 -106h-96c2 22 5 67 11 136l33 389h71zM212 662l-6 -94h-90l3 94h93z" />
    <glyph glyph-name="cent" unicode="&#xa2;" horiz-adv-x="551" 
d="M458 493c-37 15 -73 26 -111 29l-13 -393c38 0 79 10 122 29l-18 -77c-40 -11 -75 -19 -107 -21l-2 -65h-59l2 69c-121 6 -200 96 -200 242c0 163 82 266 219 281l2 75h60l-3 -77h5c29 0 62 -8 103 -19v-73zM288 518c-84 -7 -135 -79 -135 -201c0 -109 37 -168 122 -183z
" />
    <glyph glyph-name="sterling" unicode="&#xa3;" horiz-adv-x="551" 
d="M46 49c70 60 105 118 105 179c0 24 -5 49 -12 76h-97l13 65h59c-23 57 -41 102 -41 144c0 103 75 162 216 162c56 0 108 -8 157 -24l4 -77c-58 23 -109 36 -158 36c-85 0 -136 -40 -136 -99c0 -21 6 -46 16 -76l22 -66h239l-14 -66h-209c7 -26 12 -52 12 -78
c0 -36 -14 -84 -45 -126h10c87 0 154 -50 224 -50c38 0 73 13 111 39l-9 -82c-38 -17 -75 -25 -114 -25c-67 0 -121 37 -145 37c-9 0 -42 16 -92 16c-43 0 -77 -19 -117 -53z" />
    <glyph glyph-name="fraction" unicode="&#x2044;" horiz-adv-x="167" 
d="M-104 0h-63l438 676h62z" />
    <glyph glyph-name="yen" unicode="&#xa5;" horiz-adv-x="509" 
d="M197 0c5 64 8 102 8 112l6 181c-36 0 -68 1 -98 1c-42 0 -78 -1 -107 -2l2 55c29 -1 62 -2 98 -2c26 0 53 1 82 1l-38 65c-55 0 -102 -1 -139 -2l3 56c17 -1 31 -1 43 -1h31h31l-117 198h95c12 -28 23 -52 34 -71l126 -220l117 204c5 9 20 37 43 87h89l-117 -198h54
c5 0 23 0 53 1l-3 -56c-32 2 -78 2 -136 2l-38 -65h50c44 0 84 1 121 2l-4 -56c-33 1 -69 2 -108 2c-27 0 -56 -1 -87 -1l-9 -208v-15c0 -23 0 -46 1 -70h-86z" />
    <glyph glyph-name="florin" unicode="&#x192;" horiz-adv-x="551" 
d="M488 610c-29 12 -50 20 -68 20c-54 0 -69 -48 -85 -140l-13 -76h107v-63h-119l-52 -313c-28 -169 -56 -260 -173 -260c-41 0 -80 12 -112 35l13 73c31 -23 59 -36 91 -36c40 0 68 31 79 91l73 410h-98v64h110l12 71c22 142 57 216 155 216c34 0 65 -7 96 -21z" />
    <glyph glyph-name="section" unicode="&#xa7;" 
d="M96 -137c36 -16 72 -23 113 -23c70 0 107 34 107 94c0 55 -26 82 -81 114l-76 44c-68 40 -111 78 -111 155c0 63 37 121 109 162c-41 35 -60 74 -60 122c0 91 75 153 186 153c35 0 76 -7 121 -22l-9 -68c-45 19 -84 28 -113 28c-67 0 -107 -39 -107 -97
c0 -55 36 -82 99 -118l68 -38c68 -38 100 -87 100 -153c0 -64 -34 -116 -102 -163c39 -32 57 -68 57 -116c0 -100 -70 -161 -201 -161c-42 0 -81 7 -117 23zM200 151l87 -53c54 40 81 72 81 118c0 41 -25 76 -75 102l-89 47c-51 -35 -78 -68 -78 -114c0 -44 26 -70 74 -100z
" />
    <glyph glyph-name="currency" unicode="&#xa4;" horiz-adv-x="606" 
d="M178 592c38 29 78 44 125 44s89 -15 127 -44l100 101l35 -36l-100 -100c28 -37 42 -79 42 -125s-14 -88 -42 -125l100 -100l-35 -36l-100 101c-37 -29 -79 -43 -127 -43s-88 14 -125 43l-101 -101l-35 36l101 100c-28 37 -43 79 -43 125s15 88 43 125l-101 100l35 36z
M457 433c0 84 -68 153 -153 153s-153 -69 -153 -153c0 -85 68 -154 153 -154s153 70 153 154z" />
    <glyph glyph-name="quotesingle" unicode="'" horiz-adv-x="149" 
d="M103 700v-270h-57v270h57z" />
    <glyph glyph-name="quotedblleft" unicode="&#x201c;" horiz-adv-x="440" 
d="M173 509h-105l96 167h63zM347 509h-106l97 167h63z" />
    <glyph glyph-name="guillemotleft" unicode="&#xab;" horiz-adv-x="515" 
d="M173 72l-83 179l95 180h75l-81 -180l68 -179h-74zM360 72l-83 179l95 180h75l-81 -180l68 -179h-74z" />
    <glyph glyph-name="guilsinglleft" unicode="&#x2039;" horiz-adv-x="329" 
d="M173 72l-83 179l95 180h75l-81 -180l68 -179h-74z" />
    <glyph glyph-name="guilsinglright" unicode="&#x203a;" horiz-adv-x="329" 
d="M166 431l84 -179l-95 -180h-75l81 180l-68 179h73z" />
    <glyph glyph-name="fi" unicode="&#xfb01;" horiz-adv-x="463" 
d="M285 498l-3 -63h-113c-7 -137 -12 -282 -16 -435h-85c13 146 19 290 19 435h-68l3 63h68v35c0 97 43 142 139 142c27 0 53 -3 77 -9l3 -63c-21 4 -41 7 -61 7c-62 0 -76 -29 -76 -94v-18h113zM294 0c14 155 22 311 22 470v28h95c-14 -155 -22 -311 -22 -470v-28h-95z
M324 578l4 84h86l-2 -84h-88z" />
    <glyph glyph-name="fl" unicode="&#xfb02;" horiz-adv-x="463" 
d="M302 0c16 112 31 333 35 662h91c-16 -112 -30 -333 -34 -662h-92zM285 498l-3 -63h-113c-7 -137 -12 -282 -16 -435h-85c13 146 19 290 19 435h-68l3 63h68v35c0 97 43 142 139 142c27 0 53 -3 77 -9l3 -63c-21 4 -41 7 -61 7c-62 0 -76 -29 -76 -94v-18h113z" />
    <glyph glyph-name="endash" unicode="&#x2013;" 
d="M500 283v-58h-500v58h500z" />
    <glyph glyph-name="dagger" unicode="&#x2020;" 
d="M203 -172c2 97 5 165 5 203c0 94 -5 168 -12 219c15 57 29 114 36 172l-160 -25l5 90l157 -23l-15 198h99l-43 -198l163 26l-4 -93l-160 26c4 -63 12 -123 20 -178c-25 -104 -36 -243 -50 -417h-41z" />
    <glyph glyph-name="daggerdbl" unicode="&#x2021;" 
d="M181 -159l42 196l-163 -26l4 92l160 -25c-7 78 -12 135 -21 172c15 57 29 114 36 172l-159 -25l4 90l157 -23l-15 198h99l-43 -198l164 26l-5 -93l-160 26c4 -63 12 -123 20 -178c-10 -43 -27 -98 -35 -167l160 25l-5 -89l-156 23l14 -196h-98z" />
    <glyph glyph-name="periodcentered" unicode="&#xb7;" horiz-adv-x="275" 
d="M88 336c0 31 21 52 51 52s51 -23 51 -52c0 -30 -23 -52 -51 -52c-32 0 -51 22 -51 52z" />
    <glyph glyph-name="paragraph" unicode="&#xb6;" 
d="M463 684h-61v-684h-46v684h-90v-684h-46v382c-114 5 -183 73 -183 170c0 100 74 170 192 170h234v-38z" />
    <glyph glyph-name="bullet" unicode="&#x2022;" horiz-adv-x="590" 
d="M150 372c0 80 65 144 145 144c79 0 144 -64 144 -144c0 -79 -65 -145 -145 -145s-144 65 -144 145z" />
    <glyph glyph-name="quotesinglbase" unicode="&#x201a;" horiz-adv-x="275" 
d="M100 94h106l-97 -167h-63z" />
    <glyph glyph-name="quotedblbase" unicode="&#x201e;" horiz-adv-x="440" 
d="M106 94h106l-97 -167h-63zM282 94h106l-97 -167h-63z" />
    <glyph glyph-name="quotedblright" unicode="&#x201d;" horiz-adv-x="440" 
d="M316 676h106l-97 -167h-63zM142 676h106l-97 -167h-63z" />
    <glyph glyph-name="guillemotright" unicode="&#xbb;" horiz-adv-x="515" 
d="M353 431l84 -179l-95 -180h-76l82 180l-68 179h73zM166 431l84 -179l-95 -180h-76l82 180l-68 179h73z" />
    <glyph glyph-name="ellipsis" unicode="&#x2026;" horiz-adv-x="1000" 
d="M117 97h93l-6 -97h-92zM450 97h93l-6 -97h-92zM784 97h93l-6 -97h-92z" />
    <glyph glyph-name="perthousand" unicode="&#x2030;" horiz-adv-x="1190" 
d="M23 462c0 138 63 215 168 215c100 0 156 -62 156 -175c0 -140 -59 -211 -172 -211c-96 0 -152 59 -152 171zM192 619c-66 0 -97 -56 -97 -172c0 -62 31 -99 85 -99c65 0 94 51 94 152c0 81 -19 119 -82 119zM445 164c0 138 65 215 169 215c100 0 155 -62 155 -175
c0 -140 -58 -211 -171 -211c-96 0 -153 59 -153 171zM615 321c-66 0 -97 -57 -97 -173c0 -62 31 -98 85 -98c65 0 94 50 94 151c0 81 -19 120 -82 120zM589 662l-331 -662h-61l331 662h61zM824 164c0 138 63 215 168 215c100 0 156 -62 156 -175c0 -140 -58 -211 -171 -211
c-96 0 -153 59 -153 171zM993 321c-66 0 -96 -57 -96 -173c0 -62 30 -98 84 -98c65 0 94 50 94 151c0 81 -19 120 -82 120z" />
    <glyph glyph-name="questiondown" unicode="&#xbf;" horiz-adv-x="498" 
d="M326 530l-3 -112c-1 -28 -5 -45 -26 -66l-96 -96c-38 -38 -60 -82 -60 -121c0 -58 49 -91 144 -91c66 0 121 16 178 33l-10 -69c-54 -15 -111 -22 -173 -22c-148 0 -221 52 -221 155c0 61 29 116 88 175l76 76c13 13 19 31 20 56l4 82h79zM341 669l-6 -94h-90l3 94h93z
" />
    <glyph glyph-name="grave" unicode="`" 
d="M333 566h-52l-137 170h87z" />
    <glyph glyph-name="acute" unicode="&#xb4;" 
d="M199 566l102 170h88l-138 -170h-52z" />
    <glyph glyph-name="circumflex" unicode="&#x2c6;" 
d="M127 566l96 170h86l97 -170h-52l-88 118l-88 -118h-51z" />
    <glyph glyph-name="tilde" unicode="&#x2dc;" 
d="M408 697c-16 -62 -50 -94 -96 -94c-12 0 -23 2 -33 5l-39 13c-9 3 -19 4 -26 4c-23 0 -37 -9 -47 -31h-43c14 60 49 91 97 91c10 0 20 -1 29 -4l38 -14c10 -3 21 -5 30 -5c23 0 39 12 47 35h43z" />
    <glyph glyph-name="macron" unicode="&#xaf;" 
d="M140 612v61h252v-61h-252z" />
    <glyph glyph-name="breve" unicode="&#x2d8;" 
d="M128 717h44c4 -51 33 -71 94 -71s90 20 94 71h44c-7 -92 -49 -133 -138 -133s-132 42 -138 133z" />
    <glyph glyph-name="dotaccent" unicode="&#x2d9;" 
d="M222 594v97h83v-97h-83z" />
    <glyph glyph-name="dieresis" unicode="&#xa8;" 
d="M314 597v92h78v-92h-78zM140 597v92h78v-92h-78z" />
    <glyph glyph-name="ring" unicode="&#x2da;" 
d="M142 678c0 67 53 120 121 120s121 -53 121 -120c0 -68 -53 -122 -121 -122s-121 54 -121 122zM194 677c0 -39 30 -70 69 -70s70 31 70 70s-31 70 -70 70s-69 -31 -69 -70z" />
    <glyph glyph-name="cedilla" unicode="&#xb8;" 
d="M132 -207v43c53 -12 93 -18 120 -18c39 0 59 14 59 41c0 34 -20 48 -65 48c-5 0 -15 0 -28 -1v94h35v-52h11c73 0 111 -30 111 -86c0 -58 -41 -89 -121 -89c-32 0 -72 7 -122 20z" />
    <glyph glyph-name="hungarumlaut" unicode="&#x2dd;" 
d="M170 566l73 170h76l-107 -170h-42zM296 566l82 170h77l-118 -170h-41z" />
    <glyph glyph-name="ogonek" unicode="&#x2db;" 
d="M286 0c-44 -40 -67 -74 -67 -109c0 -29 14 -40 48 -40h39v-63h-38c-72 0 -109 24 -109 80c0 49 33 84 92 132h35z" />
    <glyph glyph-name="caron" unicode="&#x2c7;" 
d="M127 736h51l88 -119l88 119h52l-97 -170h-86z" />
    <glyph glyph-name="emdash" unicode="&#x2014;" horiz-adv-x="1000" 
d="M0 283h1000v-58h-1000v58z" />
    <glyph glyph-name="AE" unicode="&#xc6;" horiz-adv-x="824" 
d="M-39 0l303 585c12 24 23 50 33 77h509l-6 -78c-65 3 -101 5 -110 5h-254c0 -23 6 -44 10 -66l29 -142h179c8 0 42 2 102 4l-5 -77c-29 3 -56 3 -79 3h-52h-133l17 -98c4 -22 11 -67 25 -134c67 -2 115 -3 146 -3c28 0 62 1 101 3l-4 -79h-316c-1 28 -6 55 -10 79l-36 202
h-223l-91 -186c-8 -17 -23 -49 -46 -95h-89zM350 601l-127 -251h178z" />
    <glyph glyph-name="ordfeminine" unicode="&#xaa;" horiz-adv-x="370" 
d="M221 314c-30 -5 -57 -9 -83 -9c-76 0 -122 36 -122 90c0 51 28 77 87 97l85 29c57 19 81 33 81 62c0 32 -26 46 -79 46c-38 0 -81 -9 -128 -28l9 52c43 13 87 19 130 19c98 0 128 -30 128 -93v-28l-8 -178v-59h-68c5 30 6 59 7 86l7 111c-13 -12 -28 -18 -44 -23l-82 -29
c-38 -13 -60 -29 -60 -62c0 -31 23 -48 68 -48c15 0 42 3 80 12z" />
    <glyph glyph-name="Lslash" unicode="&#x141;" horiz-adv-x="449" 
d="M49 0c11 104 18 194 20 270c-30 -19 -50 -33 -64 -43l1 77c14 8 37 21 68 43c4 47 7 152 9 315h97c-7 -54 -11 -111 -14 -171l-4 -93c80 51 133 87 161 106l-5 -80c-20 -12 -74 -45 -161 -102l-2 -84c-1 -27 -1 -54 -1 -81v-79c37 -3 72 -5 108 -5c65 0 128 3 187 8
l-3 -81h-397z" />
    <glyph glyph-name="Oslash" unicode="&#xd8;" horiz-adv-x="801" 
d="M226 103l286 487c-37 11 -74 16 -112 16c-171 0 -267 -101 -267 -286c0 -103 33 -178 93 -217zM567 563l-286 -487c39 -16 77 -20 119 -20c169 0 267 104 267 291c0 99 -29 165 -100 216zM125 -69l60 103c-94 57 -144 153 -144 283c0 223 133 359 362 359
c64 0 114 -7 149 -20l45 76h69l-59 -101c99 -55 152 -154 152 -289c0 -224 -133 -356 -379 -356c-49 0 -92 7 -139 22l-46 -77h-70z" />
    <glyph glyph-name="OE" unicode="&#x152;" horiz-adv-x="981" 
d="M947 0h-446c-72 0 -123 -6 -154 -6c-203 0 -309 111 -309 316c0 229 128 363 346 363c53 0 107 -11 160 -11h437l-5 -78c-65 3 -102 4 -111 4h-233c-2 -12 -4 -19 -4 -23c0 -5 -1 -18 -2 -40l-6 -144h209c35 0 70 1 106 4l-6 -77c-29 3 -56 3 -80 3h-54h-176l-3 -96
c-2 -64 -2 -99 -2 -103c0 -14 1 -26 2 -38h144c63 0 127 2 194 5zM522 72c19 200 24 354 24 459v68c-7 0 -13 -1 -20 -1c-47 0 -92 9 -132 9c-171 0 -265 -105 -265 -287c0 -165 87 -261 221 -261c48 0 105 9 172 13z" />
    <glyph glyph-name="ordmasculine" unicode="&#xba;" horiz-adv-x="427" 
d="M28 480c0 119 72 192 193 192c114 0 178 -63 178 -177c0 -121 -75 -191 -186 -191c-120 0 -185 63 -185 176zM218 625c-84 0 -129 -51 -129 -148c0 -84 41 -126 120 -126c84 0 129 50 129 146c0 86 -40 128 -120 128z" />
    <glyph glyph-name="ae" unicode="&#xe6;" horiz-adv-x="789" 
d="M288 0c-41 -7 -78 -13 -112 -13c-101 0 -162 52 -162 129c0 73 37 110 116 139l135 49c59 22 86 43 86 81c0 45 -35 65 -106 65c-55 0 -110 -14 -170 -40l12 75c47 15 104 26 175 26c78 0 129 -16 154 -54c42 36 94 55 155 55c126 0 194 -72 194 -203c0 -8 -1 -21 -2 -42
h-354c-1 -20 -1 -35 -1 -46c0 -113 53 -171 156 -171c49 0 96 12 144 36l-8 -78c-54 -14 -101 -22 -142 -22c-143 0 -230 90 -230 238c0 14 1 29 3 45c-15 -10 -30 -17 -45 -23l-87 -33c-58 -22 -98 -38 -98 -94c0 -44 29 -69 84 -69c29 0 67 6 114 18zM413 332h262v3
c0 70 -42 109 -117 109s-131 -42 -145 -112z" />
    <glyph glyph-name="dotlessi" unicode="&#x131;" horiz-adv-x="220" 
d="M50 0c14 155 22 311 22 470v28h95c-14 -155 -22 -311 -22 -470v-28h-95z" />
    <glyph glyph-name="lslash" unicode="&#x142;" horiz-adv-x="225" 
d="M53 0c11 84 18 179 23 286c-32 -20 -55 -36 -71 -48l1 57c16 9 40 23 71 45c7 102 10 209 10 322h91c-11 -82 -18 -175 -23 -278c40 25 69 45 85 57l-3 -57c-14 -9 -42 -26 -84 -53c-5 -128 -9 -231 -9 -306v-25h-91z" />
    <glyph glyph-name="oslash" unicode="&#xf8;" horiz-adv-x="569" 
d="M85 -61l47 85c-62 45 -95 116 -95 209c0 174 94 279 253 279c33 0 64 -3 97 -14l34 62h67l-48 -88c61 -42 92 -112 92 -207c0 -178 -92 -280 -261 -280c-30 0 -57 1 -85 13l-33 -59h-68zM164 90l192 345c-22 7 -45 10 -68 10c-111 0 -172 -74 -172 -207
c0 -67 16 -117 48 -148zM408 405l-191 -343c22 -6 43 -9 65 -9c110 0 171 75 171 206c0 70 -15 119 -45 146z" />
    <glyph glyph-name="oe" unicode="&#x153;" horiz-adv-x="905" 
d="M287 444c-111 0 -173 -73 -173 -212c0 -116 58 -179 160 -179c112 0 173 72 173 209c0 121 -53 182 -160 182zM539 332h259v2c0 69 -43 111 -114 111c-77 0 -130 -43 -145 -113zM493 411c41 65 109 101 196 101c126 0 194 -72 194 -203c0 -5 -1 -19 -2 -43h-350
c-1 -19 -2 -34 -2 -45c0 -112 53 -171 155 -171c55 0 96 16 142 36l-8 -78c-55 -14 -102 -22 -142 -22c-88 0 -154 34 -194 100c-48 -68 -115 -100 -208 -100c-154 0 -241 92 -241 251c0 171 96 275 261 275c92 0 161 -36 199 -101z" />
    <glyph glyph-name="germandbls" unicode="&#xdf;" horiz-adv-x="556" 
d="M43 0c30 311 21 491 32 538c22 96 90 137 217 137c103 0 160 -45 160 -127c0 -59 -2 -70 -32 -74c-57 -7 -84 -22 -84 -64c0 -20 9 -37 27 -51l103 -79c44 -34 67 -69 67 -133c0 -106 -71 -163 -209 -163c-41 0 -79 6 -119 16l-3 79c50 -18 93 -30 132 -30
c82 0 122 32 122 98c0 45 -18 74 -63 106l-70 50c-40 29 -61 56 -61 103c0 66 37 101 109 103c8 1 13 15 13 35c0 45 -35 71 -100 71c-102 0 -134 -45 -140 -154l-16 -315c-1 -19 -3 -68 -4 -146h-81z" />
    <glyph glyph-name="Aacute" unicode="&#xc1;" horiz-adv-x="606" 
d="M627 0h-95c-5 27 -11 53 -20 78l-75 218h-255l-91 -196c-7 -16 -20 -49 -37 -100h-94l275 582c6 13 17 39 31 80h131c4 -30 12 -53 19 -71zM325 606l-113 -240h200zM264 716l102 170h88l-138 -170h-52z" />
    <glyph glyph-name="Acircumflex" unicode="&#xc2;" horiz-adv-x="606" 
d="M627 0h-95c-5 27 -11 53 -20 78l-75 218h-255l-91 -196c-7 -16 -20 -49 -37 -100h-94l275 582c6 13 17 39 31 80h131c4 -30 12 -53 19 -71zM325 606l-113 -240h200zM192 716l96 170h86l97 -170h-52l-88 118l-88 -118h-51z" />
    <glyph glyph-name="Adieresis" unicode="&#xc4;" horiz-adv-x="606" 
d="M627 0h-95c-5 27 -11 53 -20 78l-75 218h-255l-91 -196c-7 -16 -20 -49 -37 -100h-94l275 582c6 13 17 39 31 80h131c4 -30 12 -53 19 -71zM325 606l-113 -240h200zM379 747v92h78v-92h-78zM205 747v92h78v-92h-78z" />
    <glyph glyph-name="Agrave" unicode="&#xc0;" horiz-adv-x="606" 
d="M627 0h-95c-5 27 -11 53 -20 78l-75 218h-255l-91 -196c-7 -16 -20 -49 -37 -100h-94l275 582c6 13 17 39 31 80h131c4 -30 12 -53 19 -71zM325 606l-113 -240h200zM398 716h-52l-137 170h87z" />
    <glyph glyph-name="Aring" unicode="&#xc5;" horiz-adv-x="606" 
d="M624 0h-97c-5 27 -11 53 -20 78l-75 218h-255l-91 -196c-7 -16 -20 -49 -37 -100h-91l274 582c6 13 17 39 31 80h131c4 -30 12 -53 19 -71zM320 606l-113 -240h200zM205 816c0 67 53 120 121 120s121 -53 121 -120c0 -68 -53 -122 -121 -122s-121 54 -121 122zM256 815
c0 -39 31 -70 70 -70s69 31 69 70s-30 70 -69 70s-70 -31 -70 -70z" />
    <glyph glyph-name="Atilde" unicode="&#xc3;" horiz-adv-x="606" 
d="M627 0h-95c-5 27 -11 53 -20 78l-75 218h-255l-91 -196c-7 -16 -20 -49 -37 -100h-94l275 582c6 13 17 39 31 80h131c4 -30 12 -53 19 -71zM325 606l-113 -240h200zM473 847c-16 -62 -50 -94 -96 -94c-12 0 -23 2 -33 5l-39 13c-9 3 -19 4 -26 4c-23 0 -37 -9 -47 -31
h-43c14 60 49 91 97 91c10 0 20 -1 29 -4l38 -14c10 -3 21 -5 30 -5c23 0 39 12 47 35h43z" />
    <glyph glyph-name="Ccedilla" unicode="&#xc7;" horiz-adv-x="611" 
d="M582 569c-61 24 -126 36 -194 36c-160 0 -254 -104 -254 -285c0 -174 90 -265 259 -265c59 0 115 11 176 29l-13 -84c-50 -7 -104 -15 -166 -15c-230 0 -348 117 -348 332c0 226 132 359 362 359c57 0 116 -7 175 -21zM242 -207v43c53 -12 93 -18 120 -18
c39 0 59 14 59 41c0 34 -20 48 -65 48c-5 0 -15 0 -28 -1v94h35v-52h11c73 0 111 -30 111 -86c0 -58 -41 -89 -121 -89c-32 0 -72 7 -122 20z" />
    <glyph glyph-name="Eacute" unicode="&#xc9;" horiz-adv-x="542" 
d="M45 0c17 158 29 379 33 662h447l-6 -78c-63 3 -102 5 -118 5h-233c-2 -12 -4 -20 -4 -24c0 -5 -1 -18 -2 -40l-5 -144h208c39 0 76 2 110 4l-3 -77c-34 3 -64 3 -89 3h-51h-176l-8 -96c-3 -34 -5 -79 -7 -136c57 -5 108 -6 155 -6c71 0 137 2 198 8l-4 -81h-445zM228 716
l102 170h88l-138 -170h-52z" />
    <glyph glyph-name="Ecircumflex" unicode="&#xca;" horiz-adv-x="542" 
d="M45 0c17 158 29 379 33 662h447l-6 -78c-63 3 -102 5 -118 5h-233c-2 -12 -4 -20 -4 -24c0 -5 -1 -18 -2 -40l-5 -144h208c39 0 76 2 110 4l-3 -77c-34 3 -64 3 -89 3h-51h-176l-8 -96c-3 -34 -5 -79 -7 -136c57 -5 108 -6 155 -6c71 0 137 2 198 8l-4 -81h-445zM156 716
l96 170h86l97 -170h-52l-88 118l-88 -118h-51z" />
    <glyph glyph-name="Edieresis" unicode="&#xcb;" horiz-adv-x="542" 
d="M45 0c17 158 29 379 33 662h447l-6 -78c-63 3 -102 5 -118 5h-233c-2 -12 -4 -20 -4 -24c0 -5 -1 -18 -2 -40l-5 -144h208c39 0 76 2 110 4l-3 -77c-34 3 -64 3 -89 3h-51h-176l-8 -96c-3 -34 -5 -79 -7 -136c57 -5 108 -6 155 -6c71 0 137 2 198 8l-4 -81h-445zM343 747
v92h78v-92h-78zM169 747v92h78v-92h-78z" />
    <glyph glyph-name="Egrave" unicode="&#xc8;" horiz-adv-x="542" 
d="M45 0c17 158 29 379 33 662h447l-6 -78c-63 3 -102 5 -118 5h-233c-2 -12 -4 -20 -4 -24c0 -5 -1 -18 -2 -40l-5 -144h208c39 0 76 2 110 4l-3 -77c-34 3 -64 3 -89 3h-51h-176l-8 -96c-3 -34 -5 -79 -7 -136c57 -5 108 -6 155 -6c71 0 137 2 198 8l-4 -81h-445zM362 716
h-52l-137 170h87z" />
    <glyph glyph-name="Iacute" unicode="&#xcd;" horiz-adv-x="237" 
d="M185 662c-5 -45 -10 -91 -12 -137l-16 -310c-3 -57 -6 -129 -7 -215h-100c16 143 30 364 34 662h101zM76 716l102 170h88l-138 -170h-52z" />
    <glyph glyph-name="Icircumflex" unicode="&#xce;" horiz-adv-x="237" 
d="M185 662c-5 -45 -10 -91 -12 -137l-16 -310c-3 -57 -6 -129 -7 -215h-100c16 143 30 364 34 662h101zM4 716l96 170h86l97 -170h-52l-88 118l-88 -118h-51z" />
    <glyph glyph-name="Idieresis" unicode="&#xcf;" horiz-adv-x="237" 
d="M185 662c-5 -45 -10 -91 -12 -137l-16 -310c-3 -57 -6 -129 -7 -215h-100c16 143 30 364 34 662h101zM191 747v92h78v-92h-78zM17 747v92h78v-92h-78z" />
    <glyph glyph-name="Igrave" unicode="&#xcc;" horiz-adv-x="237" 
d="M185 662c-5 -45 -10 -91 -12 -137l-16 -310c-3 -57 -6 -129 -7 -215h-100c16 143 30 364 34 662h101zM210 716h-52l-137 170h87z" />
    <glyph glyph-name="Ntilde" unicode="&#xd1;" horiz-adv-x="715" 
d="M144 215c-7 -143 -7 -215 -7 -215h-93c23 209 36 430 40 662h124l348 -577l22 408c2 42 4 80 4 112c0 5 -1 24 -1 57h92c-6 -48 -11 -94 -13 -138l-20 -377c-1 -20 -1 -46 -1 -79c0 -9 0 -32 1 -68h-128c-20 39 -37 65 -46 80l-305 506zM524 847c-16 -62 -50 -94 -96 -94
c-12 0 -23 2 -33 5l-39 13c-9 3 -19 4 -26 4c-23 0 -37 -9 -47 -31h-43c14 60 49 91 97 91c10 0 20 -1 29 -4l38 -14c10 -3 21 -5 30 -5c23 0 39 12 47 35h43z" />
    <glyph glyph-name="Oacute" unicode="&#xd3;" horiz-adv-x="801" 
d="M384 -14c-214 0 -343 123 -343 329c0 227 135 361 370 361c221 0 348 -125 348 -334c0 -223 -135 -356 -375 -356zM133 315c0 -167 97 -259 267 -259c171 0 267 101 267 289c0 169 -95 261 -267 261c-173 0 -267 -101 -267 -291zM358 716l102 170h88l-138 -170h-52z" />
    <glyph glyph-name="Ocircumflex" unicode="&#xd4;" horiz-adv-x="801" 
d="M384 -14c-214 0 -343 123 -343 329c0 227 135 361 370 361c221 0 348 -125 348 -334c0 -223 -135 -356 -375 -356zM133 315c0 -167 97 -259 267 -259c171 0 267 101 267 289c0 169 -95 261 -267 261c-173 0 -267 -101 -267 -291zM286 716l96 170h86l97 -170h-52l-88 118
l-88 -118h-51z" />
    <glyph glyph-name="Odieresis" unicode="&#xd6;" horiz-adv-x="801" 
d="M384 -14c-214 0 -343 123 -343 329c0 227 135 361 370 361c221 0 348 -125 348 -334c0 -223 -135 -356 -375 -356zM133 315c0 -167 97 -259 267 -259c171 0 267 101 267 289c0 169 -95 261 -267 261c-173 0 -267 -101 -267 -291zM473 747v92h78v-92h-78zM299 747v92h78
v-92h-78z" />
    <glyph glyph-name="Ograve" unicode="&#xd2;" horiz-adv-x="801" 
d="M384 -14c-214 0 -343 123 -343 329c0 227 135 361 370 361c221 0 348 -125 348 -334c0 -223 -135 -356 -375 -356zM133 315c0 -167 97 -259 267 -259c171 0 267 101 267 289c0 169 -95 261 -267 261c-173 0 -267 -101 -267 -291zM492 716h-52l-137 170h87z" />
    <glyph glyph-name="Otilde" unicode="&#xd5;" horiz-adv-x="801" 
d="M384 -14c-214 0 -343 123 -343 329c0 227 135 361 370 361c221 0 348 -125 348 -334c0 -223 -135 -356 -375 -356zM133 315c0 -167 97 -259 267 -259c171 0 267 101 267 289c0 169 -95 261 -267 261c-173 0 -267 -101 -267 -291zM567 847c-16 -62 -50 -94 -96 -94
c-12 0 -23 2 -33 5l-39 13c-9 3 -19 4 -26 4c-23 0 -37 -9 -47 -31h-43c14 60 49 91 97 91c10 0 20 -1 29 -4l38 -14c10 -3 21 -5 30 -5c23 0 39 12 47 35h43z" />
    <glyph glyph-name="Scaron" unicode="&#x160;" horiz-adv-x="447" 
d="M26 26l-5 87c66 -35 121 -60 186 -60c74 0 118 34 118 87c0 34 -21 66 -66 105l-117 101c-60 52 -100 92 -100 163c0 99 73 165 200 165c53 0 106 -10 150 -28l8 -78c-61 22 -113 36 -160 36c-71 0 -112 -39 -112 -87c0 -34 21 -61 59 -94l130 -113
c64 -55 95 -100 95 -159c0 -100 -74 -166 -201 -166c-58 0 -121 13 -185 41zM109 886h51l88 -119l88 119h52l-97 -170h-86z" />
    <glyph glyph-name="Uacute" unicode="&#xda;" horiz-adv-x="669" 
d="M172 662c-6 -49 -9 -95 -11 -137l-14 -293c-1 -12 -1 -23 -1 -34c0 -45 7 -78 38 -102c32 -25 79 -40 137 -40c151 0 194 72 198 207l6 230c1 44 3 100 3 169h99c-7 -54 -11 -100 -13 -138l-11 -230c-4 -88 3 -166 -45 -225c-42 -52 -127 -83 -241 -83
c-168 0 -261 77 -261 202c0 83 14 241 16 474h100zM292 716l102 170h88l-138 -170h-52z" />
    <glyph glyph-name="Ucircumflex" unicode="&#xdb;" horiz-adv-x="669" 
d="M172 662c-6 -49 -9 -95 -11 -137l-14 -293c-1 -12 -1 -23 -1 -34c0 -45 7 -78 38 -102c32 -25 79 -40 137 -40c151 0 194 72 198 207l6 230c1 44 3 100 3 169h99c-7 -54 -11 -100 -13 -138l-11 -230c-4 -88 3 -166 -45 -225c-42 -52 -127 -83 -241 -83
c-168 0 -261 77 -261 202c0 83 14 241 16 474h100zM220 716l96 170h86l97 -170h-52l-88 118l-88 -118h-51z" />
    <glyph glyph-name="Udieresis" unicode="&#xdc;" horiz-adv-x="669" 
d="M172 662c-6 -49 -9 -95 -11 -137l-14 -293c-1 -12 -1 -23 -1 -34c0 -45 7 -78 38 -102c32 -25 79 -40 137 -40c151 0 194 72 198 207l6 230c1 44 3 100 3 169h99c-7 -54 -11 -100 -13 -138l-11 -230c-4 -88 3 -166 -45 -225c-42 -52 -127 -83 -241 -83
c-168 0 -261 77 -261 202c0 83 14 241 16 474h100zM407 747v92h78v-92h-78zM233 747v92h78v-92h-78z" />
    <glyph glyph-name="Ugrave" unicode="&#xd9;" horiz-adv-x="669" 
d="M172 662c-6 -49 -9 -95 -11 -137l-14 -293c-1 -12 -1 -23 -1 -34c0 -45 7 -78 38 -102c32 -25 79 -40 137 -40c151 0 194 72 198 207l6 230c1 44 3 100 3 169h99c-7 -54 -11 -100 -13 -138l-11 -230c-4 -88 3 -166 -45 -225c-42 -52 -127 -83 -241 -83
c-168 0 -261 77 -261 202c0 83 14 241 16 474h100zM426 716h-52l-137 170h87z" />
    <glyph glyph-name="Ydieresis" unicode="&#x178;" horiz-adv-x="476" 
d="M192 0c5 64 8 102 8 112l7 186l-214 364h108c11 -26 21 -49 33 -69l123 -214l114 199c11 19 25 47 42 84h97l-216 -369l-9 -208v-15c0 -23 1 -46 2 -70h-95zM310 747v92h78v-92h-78zM136 747v92h78v-92h-78z" />
    <glyph glyph-name="Zcaron" unicode="&#x17d;" horiz-adv-x="523" 
d="M16 0v81l398 510h-271c-16 0 -45 -1 -86 -4l3 75h456v-80l-399 -511h258c11 0 48 1 114 5l-3 -76h-470zM147 886h51l88 -119l88 119h52l-97 -170h-86z" />
    <glyph glyph-name="aacute" unicode="&#xe1;" horiz-adv-x="493" 
d="M295 0c-41 -7 -77 -13 -111 -13c-101 0 -163 52 -163 129c0 72 37 110 116 139l114 41c75 27 107 47 107 89c0 45 -34 65 -105 65c-51 0 -108 -13 -170 -40l11 75c58 18 116 26 174 26c131 0 171 -42 171 -132c0 -13 0 -27 -1 -40l-10 -255v-84h-91c7 43 8 84 10 123
l9 159c-18 -17 -38 -26 -59 -34l-109 -41c-51 -19 -80 -41 -80 -88c0 -44 31 -69 91 -69c20 0 56 4 106 17zM196 566l102 170h88l-138 -170h-52z" />
    <glyph glyph-name="acircumflex" unicode="&#xe2;" horiz-adv-x="493" 
d="M295 0c-41 -7 -77 -13 -111 -13c-101 0 -163 52 -163 129c0 72 37 110 116 139l114 41c75 27 107 47 107 89c0 45 -34 65 -105 65c-51 0 -108 -13 -170 -40l11 75c58 18 116 26 174 26c131 0 171 -42 171 -132c0 -13 0 -27 -1 -40l-10 -255v-84h-91c7 43 8 84 10 123
l9 159c-18 -17 -38 -26 -59 -34l-109 -41c-51 -19 -80 -41 -80 -88c0 -44 31 -69 91 -69c20 0 56 4 106 17zM124 566l96 170h86l97 -170h-52l-88 118l-88 -118h-51z" />
    <glyph glyph-name="adieresis" unicode="&#xe4;" horiz-adv-x="493" 
d="M295 0c-41 -7 -77 -13 -111 -13c-101 0 -163 52 -163 129c0 72 37 110 116 139l114 41c75 27 107 47 107 89c0 45 -34 65 -105 65c-51 0 -108 -13 -170 -40l11 75c58 18 116 26 174 26c131 0 171 -42 171 -132c0 -13 0 -27 -1 -40l-10 -255v-84h-91c7 43 8 84 10 123
l9 159c-18 -17 -38 -26 -59 -34l-109 -41c-51 -19 -80 -41 -80 -88c0 -44 31 -69 91 -69c20 0 56 4 106 17zM311 597v92h78v-92h-78zM137 597v92h78v-92h-78z" />
    <glyph glyph-name="agrave" unicode="&#xe0;" horiz-adv-x="493" 
d="M295 0c-41 -7 -77 -13 -111 -13c-101 0 -163 52 -163 129c0 72 37 110 116 139l114 41c75 27 107 47 107 89c0 45 -34 65 -105 65c-51 0 -108 -13 -170 -40l11 75c58 18 116 26 174 26c131 0 171 -42 171 -132c0 -13 0 -27 -1 -40l-10 -255v-84h-91c7 43 8 84 10 123
l9 159c-18 -17 -38 -26 -59 -34l-109 -41c-51 -19 -80 -41 -80 -88c0 -44 31 -69 91 -69c20 0 56 4 106 17zM330 566h-52l-137 170h87z" />
    <glyph glyph-name="aring" unicode="&#xe5;" horiz-adv-x="493" 
d="M295 0c-41 -7 -77 -13 -111 -13c-101 0 -163 52 -163 129c0 72 37 110 116 139l114 41c75 27 107 47 107 89c0 45 -34 65 -105 65c-51 0 -108 -13 -170 -40l11 75c58 18 116 26 174 26c131 0 171 -42 171 -132c0 -13 0 -27 -1 -40l-10 -255v-84h-91c7 43 8 84 10 123
l9 159c-18 -17 -38 -26 -59 -34l-109 -41c-51 -19 -80 -41 -80 -88c0 -44 31 -69 91 -69c20 0 56 4 106 17zM162 665c0 67 53 121 121 121s121 -54 121 -121c0 -68 -53 -121 -121 -121s-121 53 -121 121zM213 665c0 -39 31 -70 70 -70s70 31 70 70s-31 69 -70 69
s-70 -30 -70 -69z" />
    <glyph glyph-name="atilde" unicode="&#xe3;" horiz-adv-x="493" 
d="M295 0c-41 -7 -77 -13 -111 -13c-101 0 -163 52 -163 129c0 72 37 110 116 139l114 41c75 27 107 47 107 89c0 45 -34 65 -105 65c-51 0 -108 -13 -170 -40l11 75c58 18 116 26 174 26c131 0 171 -42 171 -132c0 -13 0 -27 -1 -40l-10 -255v-84h-91c7 43 8 84 10 123
l9 159c-18 -17 -38 -26 -59 -34l-109 -41c-51 -19 -80 -41 -80 -88c0 -44 31 -69 91 -69c20 0 56 4 106 17zM405 697c-16 -62 -50 -94 -96 -94c-12 0 -23 2 -33 5l-39 13c-9 3 -19 4 -26 4c-23 0 -37 -9 -47 -31h-43c14 60 49 91 97 91c10 0 20 -1 29 -4l38 -14
c10 -3 21 -5 30 -5c23 0 39 12 47 35h43z" />
    <glyph glyph-name="ccedilla" unicode="&#xe7;" horiz-adv-x="440" 
d="M406 8c-48 -14 -92 -22 -132 -22c-150 0 -238 91 -238 251c0 171 98 275 257 275c41 0 84 -8 132 -20v-75c-49 15 -91 28 -135 28c-112 0 -173 -73 -173 -210c0 -121 54 -182 159 -182c41 0 89 13 147 32zM142 -207v43c53 -12 93 -18 120 -18c39 0 59 14 59 41
c0 34 -20 48 -65 48c-5 0 -15 0 -28 -1v94h35v-52h11c73 0 111 -30 111 -86c0 -58 -41 -89 -121 -89c-32 0 -72 7 -122 20z" />
    <glyph glyph-name="eacute" unicode="&#xe9;" horiz-adv-x="493" 
d="M119 267c-1 -18 -2 -32 -2 -43c0 -115 52 -174 156 -174c58 0 100 17 146 36l-9 -78c-53 -13 -99 -22 -140 -22c-147 0 -234 92 -234 248c0 172 100 278 245 278c126 0 194 -72 194 -203c0 -8 -1 -21 -2 -42h-354zM128 332h262c0 72 -42 112 -118 112
c-75 0 -130 -42 -144 -112zM196 566l102 170h88l-138 -170h-52z" />
    <glyph glyph-name="ecircumflex" unicode="&#xea;" horiz-adv-x="493" 
d="M119 267c-1 -18 -2 -32 -2 -43c0 -115 52 -174 156 -174c58 0 100 17 146 36l-9 -78c-53 -13 -99 -22 -140 -22c-147 0 -234 92 -234 248c0 172 100 278 245 278c126 0 194 -72 194 -203c0 -8 -1 -21 -2 -42h-354zM128 332h262c0 72 -42 112 -118 112
c-75 0 -130 -42 -144 -112zM124 566l96 170h86l97 -170h-52l-88 118l-88 -118h-51z" />
    <glyph glyph-name="edieresis" unicode="&#xeb;" horiz-adv-x="493" 
d="M119 267c-1 -18 -2 -32 -2 -43c0 -115 52 -174 156 -174c58 0 100 17 146 36l-9 -78c-53 -13 -99 -22 -140 -22c-147 0 -234 92 -234 248c0 172 100 278 245 278c126 0 194 -72 194 -203c0 -8 -1 -21 -2 -42h-354zM128 332h262c0 72 -42 112 -118 112
c-75 0 -130 -42 -144 -112zM311 597v92h78v-92h-78zM137 597v92h78v-92h-78z" />
    <glyph glyph-name="egrave" unicode="&#xe8;" horiz-adv-x="493" 
d="M119 267c-1 -18 -2 -32 -2 -43c0 -115 52 -174 156 -174c58 0 100 17 146 36l-9 -78c-53 -13 -99 -22 -140 -22c-147 0 -234 92 -234 248c0 172 100 278 245 278c126 0 194 -72 194 -203c0 -8 -1 -21 -2 -42h-354zM128 332h262c0 72 -42 112 -118 112
c-75 0 -130 -42 -144 -112zM330 566h-52l-137 170h87z" />
    <glyph glyph-name="iacute" unicode="&#xed;" horiz-adv-x="220" 
d="M50 0c14 155 22 311 22 470v28h95c-14 -155 -22 -311 -22 -470v-28h-95zM59 566l102 170h88l-138 -170h-52z" />
    <glyph glyph-name="icircumflex" unicode="&#xee;" horiz-adv-x="220" 
d="M50 0c14 155 22 311 22 470v28h95c-14 -155 -22 -311 -22 -470v-28h-95zM-13 566l96 170h86l97 -170h-52l-88 118l-88 -118h-51z" />
    <glyph glyph-name="idieresis" unicode="&#xef;" horiz-adv-x="220" 
d="M50 0c14 155 22 311 22 470v28h95c-14 -155 -22 -311 -22 -470v-28h-95zM174 597v92h78v-92h-78zM0 597v92h78v-92h-78z" />
    <glyph glyph-name="igrave" unicode="&#xec;" horiz-adv-x="220" 
d="M50 0c14 155 22 311 22 470v28h95c-14 -155 -22 -311 -22 -470v-28h-95zM193 566h-52l-137 170h87z" />
    <glyph glyph-name="ntilde" unicode="&#xf1;" horiz-adv-x="567" 
d="M416 0c15 155 18 262 18 314c0 92 -22 134 -114 134c-166 0 -190 -132 -190 -409v-39h-87c15 158 22 324 22 498h78v-78c47 64 109 92 194 92c123 0 177 -51 177 -158c0 -53 -7 -153 -7 -302v-52h-91zM442 697c-16 -62 -50 -94 -96 -94c-12 0 -23 2 -33 5l-39 13
c-9 3 -19 4 -26 4c-23 0 -37 -9 -47 -31h-43c14 60 49 91 97 91c10 0 20 -1 29 -4l38 -14c10 -3 21 -5 30 -5c23 0 39 12 47 35h43z" />
    <glyph glyph-name="oacute" unicode="&#xf3;" horiz-adv-x="569" 
d="M37 237c0 170 96 275 257 275c152 0 238 -90 238 -253c0 -173 -100 -273 -248 -273c-160 0 -247 90 -247 251zM290 444c-112 0 -172 -72 -172 -211c0 -120 55 -180 160 -180c112 0 172 72 172 209c0 122 -53 182 -160 182zM234 566l102 170h88l-138 -170h-52z" />
    <glyph glyph-name="ocircumflex" unicode="&#xf4;" horiz-adv-x="569" 
d="M37 237c0 170 96 275 257 275c152 0 238 -90 238 -253c0 -173 -100 -273 -248 -273c-160 0 -247 90 -247 251zM290 444c-112 0 -172 -72 -172 -211c0 -120 55 -180 160 -180c112 0 172 72 172 209c0 122 -53 182 -160 182zM162 566l96 170h86l97 -170h-52l-88 118
l-88 -118h-51z" />
    <glyph glyph-name="odieresis" unicode="&#xf6;" horiz-adv-x="569" 
d="M37 237c0 170 96 275 257 275c152 0 238 -90 238 -253c0 -173 -100 -273 -248 -273c-160 0 -247 90 -247 251zM290 444c-112 0 -172 -72 -172 -211c0 -120 55 -180 160 -180c112 0 172 72 172 209c0 122 -53 182 -160 182zM349 597v92h78v-92h-78zM175 597v92h78v-92h-78
z" />
    <glyph glyph-name="ograve" unicode="&#xf2;" horiz-adv-x="569" 
d="M37 237c0 170 96 275 257 275c152 0 238 -90 238 -253c0 -173 -100 -273 -248 -273c-160 0 -247 90 -247 251zM290 444c-112 0 -172 -72 -172 -211c0 -120 55 -180 160 -180c112 0 172 72 172 209c0 122 -53 182 -160 182zM368 566h-52l-137 170h87z" />
    <glyph glyph-name="otilde" unicode="&#xf5;" horiz-adv-x="569" 
d="M37 237c0 170 96 275 257 275c152 0 238 -90 238 -253c0 -173 -100 -273 -248 -273c-160 0 -247 90 -247 251zM290 444c-112 0 -172 -72 -172 -211c0 -120 55 -180 160 -180c112 0 172 72 172 209c0 122 -53 182 -160 182zM443 697c-16 -62 -50 -94 -96 -94
c-12 0 -23 2 -33 5l-39 13c-9 3 -19 4 -26 4c-23 0 -37 -9 -47 -31h-43c14 60 49 91 97 91c10 0 20 -1 29 -4l38 -14c10 -3 21 -5 30 -5c23 0 39 12 47 35h43z" />
    <glyph glyph-name="scaron" unicode="&#x161;" horiz-adv-x="395" 
d="M18 94c60 -28 112 -44 161 -44c68 0 106 26 106 67c0 32 -19 47 -48 70l-109 86c-50 40 -76 75 -76 121c0 68 60 118 155 118c39 0 82 -7 130 -19l5 -73c-57 20 -102 28 -131 28c-48 0 -78 -24 -78 -57c0 -22 16 -40 50 -66l101 -76c50 -39 82 -65 82 -127
c0 -84 -64 -136 -188 -136c-49 0 -101 9 -156 27zM75 736h51l88 -119l88 119h52l-97 -170h-86z" />
    <glyph glyph-name="uacute" unicode="&#xfa;" horiz-adv-x="567" 
d="M152 498c-15 -155 -19 -262 -19 -314c0 -92 23 -134 115 -134c166 0 189 131 189 408v40h88c-15 -158 -23 -324 -23 -498h-78v77c-47 -64 -108 -91 -193 -91c-123 0 -178 50 -178 157c0 54 7 156 7 304v51h92zM233 566l102 170h88l-138 -170h-52z" />
    <glyph glyph-name="ucircumflex" unicode="&#xfb;" horiz-adv-x="567" 
d="M152 498c-15 -155 -19 -262 -19 -314c0 -92 23 -134 115 -134c166 0 189 131 189 408v40h88c-15 -158 -23 -324 -23 -498h-78v77c-47 -64 -108 -91 -193 -91c-123 0 -178 50 -178 157c0 54 7 156 7 304v51h92zM161 566l96 170h86l97 -170h-52l-88 118l-88 -118h-51z" />
    <glyph glyph-name="udieresis" unicode="&#xfc;" horiz-adv-x="567" 
d="M152 498c-15 -155 -19 -262 -19 -314c0 -92 23 -134 115 -134c166 0 189 131 189 408v40h88c-15 -158 -23 -324 -23 -498h-78v77c-47 -64 -108 -91 -193 -91c-123 0 -178 50 -178 157c0 54 7 156 7 304v51h92zM348 597v92h78v-92h-78zM174 597v92h78v-92h-78z" />
    <glyph glyph-name="ugrave" unicode="&#xf9;" horiz-adv-x="567" 
d="M152 498c-15 -155 -19 -262 -19 -314c0 -92 23 -134 115 -134c166 0 189 131 189 408v40h88c-15 -158 -23 -324 -23 -498h-78v77c-47 -64 -108 -91 -193 -91c-123 0 -178 50 -178 157c0 54 7 156 7 304v51h92zM367 566h-52l-137 170h87z" />
    <glyph glyph-name="ydieresis" unicode="&#xff;" horiz-adv-x="465" 
d="M214 -99c-42 -90 -85 -127 -175 -127c-31 0 -61 4 -90 10l-5 70c29 -10 56 -15 81 -15c52 0 90 27 114 80l39 88l-131 346c-5 14 -23 62 -56 145h99l114 -333c8 -23 15 -48 20 -76c9 25 20 52 33 81l92 208c11 25 27 65 47 120h93zM297 597v92h78v-92h-78zM123 597v92h78
v-92h-78z" />
    <glyph glyph-name="zcaron" unicode="&#x17e;" horiz-adv-x="427" 
d="M406 0h-398l3 78l319 357h-207c-29 0 -57 -1 -83 -3l3 66h380v-71l-323 -359h190c20 0 59 2 117 6zM91 736h51l88 -119l88 119h52l-97 -170h-86z" />
    <glyph glyph-name="trademark" unicode="&#x2122;" horiz-adv-x="833" 
d="M339 711v-33h-84v-228h-46v228h-85v33h215zM463 711l78 -198l73 198h64v-261h-40v224l-84 -224h-26l-88 224v-224h-40v261h63z" />
    <glyph glyph-name="copyright" unicode="&#xa9;" horiz-adv-x="833" 
d="M416 713c97 0 187 -36 256 -105c67 -67 103 -157 103 -254c0 -98 -36 -186 -103 -252c-71 -69 -162 -107 -256 -107c-95 0 -183 37 -252 106s-106 158 -106 253s38 185 107 255c66 67 154 104 251 104zM733 354c0 85 -33 165 -92 224c-60 60 -139 92 -225 92
s-163 -32 -221 -91c-61 -62 -94 -142 -94 -225s33 -161 93 -222c60 -60 138 -93 222 -93c83 0 164 33 226 94c59 58 91 135 91 221zM520 445c-10 51 -49 80 -102 80c-75 0 -121 -61 -121 -172c0 -107 48 -168 121 -168c56 0 97 33 107 89h63c-7 -83 -77 -140 -173 -140
c-113 0 -188 83 -188 218c0 138 78 223 193 223c90 0 156 -54 163 -130h-63z" />
    <glyph glyph-name="logicalnot" unicode="&#xac;" horiz-adv-x="833" 
d="M709 419v-245h-56v188h-529v57h585z" />
    <glyph glyph-name="registered" unicode="&#xae;" horiz-adv-x="833" 
d="M416 713c98 0 187 -37 256 -106c67 -67 103 -157 103 -253c0 -98 -36 -186 -104 -252c-71 -69 -161 -107 -255 -107c-95 0 -184 38 -253 107c-68 68 -105 157 -105 252s38 186 108 256c66 67 153 103 250 103zM733 352c0 86 -32 166 -91 225c-61 61 -139 93 -226 93
c-85 0 -162 -31 -220 -90c-62 -62 -95 -142 -95 -226c0 -83 33 -161 93 -222s139 -93 221 -93c85 0 164 32 226 93c59 58 92 135 92 220zM426 565c114 0 171 -36 171 -113c0 -57 -36 -99 -96 -109l92 -188h-77l-86 178h-87v-178h-69v410h152zM413 520h-70v-142h72
c76 0 111 17 111 69c0 53 -36 73 -113 73z" />
    <glyph glyph-name="minus" unicode="&#x2212;" horiz-adv-x="833" 
d="M709 327v-58h-585v58h585z" />
    <glyph glyph-name="Eth" unicode="&#xd0;" horiz-adv-x="713" 
d="M50 0c12 100 19 204 25 312h-36c-3 0 -16 0 -36 -1l2 64c17 -1 34 -1 51 -1h21c5 66 5 162 7 288h274c88 0 156 0 217 -51c64 -54 97 -138 97 -255c0 -120 -37 -215 -106 -278c-69 -64 -151 -78 -265 -78h-251zM150 69h104h24c73 0 132 2 187 35c77 47 116 130 116 252
c0 153 -66 237 -184 237h-53h-171l-10 -219h89c62 0 101 0 116 1l-2 -64c-16 1 -55 1 -117 1h-89l-3 -73c-3 -60 -5 -116 -7 -170z" />
    <glyph glyph-name="Thorn" unicode="&#xde;" horiz-adv-x="505" 
d="M79 662h96c-8 -57 -11 -108 -13 -153h112h28c49 0 88 -1 120 -20c42 -24 67 -73 67 -134c0 -121 -87 -202 -242 -202c-20 0 -40 1 -60 3l-22 65c19 -3 35 -4 49 -4c125 0 187 44 187 124c0 86 -47 101 -137 101c-32 0 -67 -2 -105 -6c-4 -46 -6 -80 -7 -102l-4 -118
c-2 -62 -5 -134 -6 -216h-97c17 148 30 369 34 662z" />
    <glyph glyph-name="Yacute" unicode="&#xdd;" horiz-adv-x="476" 
d="M192 0c5 64 8 102 8 112l7 186l-214 364h108c11 -26 21 -49 33 -69l123 -214l114 199c11 19 25 47 42 84h97l-216 -369l-9 -208v-15c0 -23 1 -46 2 -70h-95zM195 716l102 170h88l-138 -170h-52z" />
    <glyph glyph-name="brokenbar" unicode="&#xa6;" 
d="M281 699v-370h-62v370h62zM281 199v-370h-62v370h62z" />
    <glyph glyph-name="degree" unicode="&#xb0;" horiz-adv-x="329" 
d="M165 710c76 0 138 -62 138 -138c0 -75 -61 -138 -139 -138c-77 0 -137 61 -137 138c0 78 62 138 138 138zM263 572c0 54 -43 98 -98 98c-54 0 -99 -43 -99 -98c0 -56 45 -99 99 -99c56 0 98 45 98 99z" />
    <glyph glyph-name="divide" unicode="&#xf7;" horiz-adv-x="833" 
d="M417 530c31 0 56 -25 56 -56c0 -30 -24 -56 -56 -56s-56 25 -56 56s26 56 56 56zM709 327v-57h-585v57h585zM417 178c30 0 56 -25 56 -56c0 -30 -24 -56 -56 -56c-31 0 -56 25 -56 56c0 32 26 56 56 56z" />
    <glyph glyph-name="eth" unicode="&#xf0;" horiz-adv-x="569" 
d="M290 431c-111 0 -172 -71 -172 -205c0 -117 54 -175 160 -175c112 0 172 70 172 203c0 118 -53 177 -160 177zM405 466c-12 27 -30 60 -52 99c-41 -9 -91 -23 -153 -41l-14 49c62 11 110 21 142 29c-11 18 -24 36 -37 54l65 19c14 -15 28 -32 45 -52c29 8 59 17 89 27
l12 -48c-19 -4 -44 -10 -76 -17c71 -114 105 -223 105 -344c0 -155 -103 -255 -247 -255c-162 0 -247 85 -247 245c0 165 91 262 246 262c43 0 81 -7 122 -27z" />
    <glyph glyph-name="mu" unicode="&#xb5;" horiz-adv-x="551" 
d="M177 522l-62 -291c-5 -22 -7 -44 -7 -67c0 -70 38 -111 106 -111c82 0 135 66 164 200l59 269h76l-79 -368c-7 -31 -11 -53 -11 -66c0 -21 12 -32 35 -32c2 0 8 0 17 1l-13 -61c-17 -4 -33 -5 -45 -5c-46 0 -67 22 -71 72c-26 -45 -78 -72 -141 -72c-56 0 -99 22 -128 67
l-55 -266h-76l154 730h77z" />
    <glyph glyph-name="multiply" unicode="&#xd7;" horiz-adv-x="833" 
d="M419 338l232 233l40 -40l-232 -233l232 -232l-40 -40l-232 232l-233 -232l-39 40l232 232l-232 233l39 40z" />
    <glyph glyph-name="onehalf" unicode="&#xbd;" horiz-adv-x="861" 
d="M198 291h-59c4 27 6 50 7 69l11 186c1 15 1 31 1 47v19c-12 -6 -28 -13 -47 -24v45c22 10 42 19 59 29h50c-5 -32 -6 -62 -8 -91l-10 -164c-2 -27 -3 -66 -4 -116zM243 0h-63l438 676h62zM532 0l2 38l100 81c92 73 137 130 137 170c0 35 -29 53 -86 53
c-40 0 -83 -7 -131 -19l8 44c44 7 85 12 125 12c94 0 140 -28 140 -85c0 -48 -43 -111 -129 -179l-95 -76h118c29 0 62 2 99 5l-4 -44h-284z" />
    <glyph glyph-name="onequarter" unicode="&#xbc;" horiz-adv-x="861" 
d="M198 291h-59c4 27 6 50 7 69l11 186c1 15 1 31 1 47v19c-12 -6 -28 -13 -47 -24v45c22 10 42 19 59 29h50c-5 -32 -6 -62 -8 -91l-10 -164c-2 -27 -3 -66 -4 -116zM243 0h-63l438 676h62zM704 0c5 32 7 55 8 69l3 61h-182l4 49l128 153c7 8 17 22 30 39h79
c-5 -45 -9 -81 -9 -108l-3 -92h24c10 0 27 0 48 3v-46c-19 2 -31 2 -37 2h-38l-4 -63v-36v-31h-51zM585 171h134l7 168z" />
    <glyph glyph-name="onesuperior" unicode="&#xb9;" horiz-adv-x="364" 
d="M208 264h-62c3 29 5 53 7 74l12 199c0 17 1 34 1 51v20c-13 -6 -30 -14 -50 -25v48c24 10 44 20 63 30h52c-6 -33 -7 -66 -9 -97l-10 -176c-2 -29 -4 -70 -4 -124z" />
    <glyph glyph-name="plusminus" unicode="&#xb1;" horiz-adv-x="833" 
d="M446 576v-168h263v-57h-263v-168h-58v168h-264v57h264v168h58zM709 77v-57h-585v57h585z" />
    <glyph glyph-name="thorn" unicode="&#xfe;" horiz-adv-x="565" 
d="M130 76l-6 -146c-2 -36 -3 -83 -3 -141h-93c22 141 37 432 43 873h91c-8 -62 -13 -116 -16 -163c46 8 88 13 127 13c169 0 254 -84 254 -249c0 -168 -94 -278 -234 -278c-71 0 -121 28 -163 91zM151 427c-6 -33 -12 -95 -12 -180c0 -131 46 -194 147 -194s159 73 159 212
c0 123 -58 184 -173 184c-40 0 -81 -7 -121 -22z" />
    <glyph glyph-name="threequarters" unicode="&#xbe;" horiz-adv-x="861" 
d="M21 298l-5 46c40 -12 77 -22 120 -22c78 0 119 27 119 77c0 43 -36 66 -105 66c-13 0 -31 -1 -54 -3v42c14 -1 26 -1 35 -1c75 0 114 27 114 71c0 42 -29 58 -92 58c-35 0 -72 -6 -108 -17l11 44c40 7 74 11 105 11c93 0 140 -31 140 -90c0 -48 -29 -80 -87 -94
c63 -9 94 -39 94 -90c0 -70 -64 -113 -173 -113c-39 0 -76 5 -114 15zM243 0h-63l438 676h62zM704 0c5 32 7 55 8 69l3 61h-182l4 49l128 153c7 8 17 22 30 39h79c-5 -45 -9 -81 -9 -108l-3 -92h24c10 0 27 0 48 3v-46c-19 2 -31 2 -37 2h-38l-4 -63v-36v-31h-51zM585 171
h134l7 168z" />
    <glyph glyph-name="threesuperior" unicode="&#xb3;" horiz-adv-x="364" 
d="M22 272l-5 48c42 -12 81 -22 126 -22c81 0 124 28 124 81c0 47 -37 72 -110 72c-14 0 -32 -2 -56 -3v44c15 -1 26 -1 36 -1c79 0 120 29 120 77c0 44 -31 61 -97 61c-36 0 -75 -6 -112 -18l11 48c41 7 78 11 110 11c97 0 146 -33 146 -96c0 -52 -31 -86 -91 -101
c66 -10 99 -42 99 -96c0 -76 -68 -121 -181 -121c-41 0 -80 5 -120 16z" />
    <glyph glyph-name="twosuperior" unicode="&#xb2;" horiz-adv-x="364" 
d="M18 264l3 41l105 86c96 79 143 140 143 183c0 37 -30 56 -90 56c-42 0 -87 -7 -137 -20l8 47c46 8 89 13 131 13c99 0 147 -30 147 -91c0 -51 -46 -119 -135 -192l-100 -81h123c31 0 66 2 105 5l-5 -47h-298z" />
    <glyph glyph-name="yacute" unicode="&#xfd;" horiz-adv-x="465" 
d="M214 -99c-42 -90 -85 -127 -175 -127c-31 0 -61 4 -90 10l-5 70c29 -10 56 -15 81 -15c52 0 90 27 114 80l39 88l-131 346c-5 14 -23 62 -56 145h99l114 -333c8 -23 15 -48 20 -76c9 25 20 52 33 81l92 208c11 25 27 65 47 120h93zM182 566l102 170h88l-138 -170h-52z
" />
    </font>
</defs>
</svg>
